<mxfile host="65bd71144e">
    <diagram id="vWmFkZvtJM-em79fW9Lk" name="Page-1">
        <mxGraphModel dx="779" dy="559" grid="0" gridSize="10" guides="1" tooltips="1" connect="1" arrows="1" fold="1" page="1" pageScale="1" pageWidth="850" pageHeight="1100" math="0" shadow="0">
            <root>
                <mxCell id="0"/>
                <mxCell id="1" parent="0"/>
                <mxCell id="2" value="" style="shape=stencil(lVfZbttADPwavRLce/mcpv8RIE5t1I0Dx+nx96UgrCvS8hR5k6WZXR4zu/SUHt73T2+7KfL75Xz6vvt1eL7sp/RlivHwut+dDxd9mtLjlB5eTufdt/Pp4/V5+f32NCPnpx+nn/MKvxderVTzzIr8Z3kTKCwvvi744+F1he+BSjT4Rj3dx0san6/rC8V+nxCYidkwUqHEYItGUg2hJJIGCEypG0IVErBD0xxt0j1TCfcJlakXQ5BCEZQpR+o2h1UdtmOiZAlSKUeww6jhOiJQpEBdLD5RBn1jysHiA0UQz02Xe6cGhMfU7Pq9QlVEyrYD2jIk7EJs69kjFbB+p+jWV2cUUM9AjT0hCSBoRNlHxEBDQX3gVJpGU7ZLxDc7lOGMbYKeDc0SGmyaEqJTBVNEBB5NuhIiVSCj0ImtlyVjQvGNU+MwbpwkT0BJ9+GTFb6CvmlAzsmFGsBrQdhnjJStzhFfUgay4PH12mShAp2fnBMaMRI2NSeiTB3Eo9m5eCIJiKdRuHFmgzfOMO7amUgRyV848w7ImZ8l5D4qvrIyuqGqOtM2uWGRtuC7VjMJIjQfUoljdNgmiPd+6uMa3c5BqFthz5cKMk6hYpWkhUY76FxQ3TCiOQBpaIrBEQK8x0vw4pMR4zZezWnxDWpV8WLxBXpB42n2PM3w1tcKsS1phDIqal3XAjgllOavHIZnSxHKHs8g/npzWOMpSkXvRkEec9U2/pPj8v/x+vBvNn85HI/LaL/+7md5fbX8D0iPfwE=);lineShape=1;strokeColor=default;" vertex="1" parent="1">
                    <mxGeometry x="47.61903590742929" y="68.22971605951193" width="26.80820492401982" height="37.04693064036763" as="geometry"/>
                </mxCell>
                <mxCell id="3" value="" style="shape=stencil(lVfLbhsxDPyavRKSqOc5Tf8jQJzaqGsHjtM2fx9uF1JXlHeS3NYyRxQfM6ImvnvZPzzvJmderpfzz92fw+N1P/G3ybnDab+7HK7yNfH9xHdP58vux+X8enpcfj8/zJbz16/z73mHvwuuMNk0o5x5W1asIw7/Vr4vgOPhtAKkRCH3AEuhbAOiozR4KGkb4DNl7gGRLPDAmXzvwRlivw0IhlzoAOwoZxCDJe49eF+3uA0IxLYDREMeHSmT6T1Iouefm1myVEoHKIYibwPcUOmSyQIPgbLry2AMGQOOVLdrDgoVC05EgbU9gwgsOa8DYLC/NEHs7SNsvBZdsw+wZqZ2ZbNn2EWmZqPZO/IR5cf0TCsW5ocrD9cdAeoVyGVtj6gv2YvD/iD/uUa3Pj/IZ6n9u84PyKdtLF8VADWcAILq0AArIADbC8XcQkCKCrmBY6hkqTbkmgIgRZE4a/uCVIKiEusPOMxkvHYQAGfsULNMESSodWSzTx9wzKgeCrULP2nvifF5Bk7CFqKoGkJWQH54OI+hBM7jKVltz4ADX7W3RR8oF7Igoewp9BFnuStBxXwi0wMSlrngtG7JdRuADgVLpg9aVhIAeKe72jMxoA2LUPQeOEAPUmfugxaqZqTtvu7XmJngbcysmSbiZBD15f7utSVQBCeaZxylFVSQdA3ahZVFtFlR39SB5LZ9IJuVPWKyKHOMyh4phQhPURWoc+dt+6zjdXj/UoWhNV29bzfummH+kJ4DBZ6lXxENjsmzkve3X4bjgQSclLbD8UYSOnZoAaSRirnhKZHQgOBvPCXQkPzl180nAPLx/zH1dDgel7fY+n/9+JKl5eHG9+8=);lineShape=1;strokeColor=default;" vertex="1" parent="1">
                    <mxGeometry x="104.48911841703898" y="62.50627225580138" width="40.778273864604806" height="44.40811836373152" as="geometry"/>
                </mxCell>
                <mxCell id="4" value="" style="shape=stencil(lVZJcttADHwNr6gZYNaz4/zDVZYjVhTJJSvb7wOGoSLAnnb5RlFoYmmggUnuXvYPz7uJw8vlfPq6+zk/XvaTfJqY5+N+d54v+jTJ/SR3T6fz7sv59P34uP5+flgsl6dvpx/LF36tOKGSFhCH3+uLwtT63zefV/vDfLyxj4UiG0Bm4jwGSKTcDCAFyjIGpEY1GgB3EhBSyRSth9igh9qodAsIVOIY0NWDBQQKDdgXytXZcwH2lVqxKW8O37Zv1C1rmQqKp1OpPmFJgOWgCQaLyBstIxfNksCRGANELKAQV5h0siGJJoGr6lgToYAAmZoNSRIFFFKiVL0HRsTp3+JzaKhKvDXOTZUaojpSyZ6HzhDgctART2CgFVBt88VIAYyb5pBs0ko0aD4tUvLTkDEL1X4/UEIZq4RFZ/+v2Ud9lGxJI+67tonJVfGwffcMXPVpZO+mPwruCQU4ivs2SyNAdgykTUFGKbueUM2OiONKxa4RYahIShq/GuaOuq6QhI8AavfTr4uqg6SLqrzNIXViUNYcKNqQSoR7QSMW66Eq00i3G0WbQ6tQtrPftQv1wEHyy/xmU7ydgp/lRfdBUVUrXEAVrjZVL9sWKuJIjAJVF8/1PhnYc/YFRbfFq73ZZFObkb1juL0Tj++IBNds8JdFDVB8dX04rS7UwffZXzolbQwO+uFj9+b79vrw/7h9mg+H9Ta+/d8fw/pqPaTl/g8=);lineShape=1;strokeColor=default;" vertex="1" parent="1">
                    <mxGeometry x="153.03660453955808" y="74.89282434372137" width="51.14482454950397" height="12.796696143404592" as="geometry"/>
                </mxCell>
                <mxCell id="5" value="" style="shape=stencil(lVbLctswDPwaXTEgwOc5Tf8jM3FqT1074zh9/H2haqQYlLWd3CQRK3KBXYCDPrztn153g/Db9XL+vvt1eL7uB/0yiBxO+93lcLWnQR8HfXg5X3bfLuf30/P0/vo0Ro5PP84/xz/8nnCRUhpBwn+mDzlQqf++fJ3ij4fTTbwEYnWApFRlG6CFlB0gRsq6DbD/NQ9QJQE75ErJA0SIAYfSKIgDBKHK24BmR/IAJgUUWqJUuviQQHyhkP2BqGYQv2KcSADh1ij68wQmjhDQOkCiXDDAy8IoJES5kXrKUmDRjLP6HTRQbgCQqUUPiFQRh7TaIZMGKItcPSDhuklfZ5M2zBL3wpNGGRXOhNZ5wRwOzFMbleYrXangHdjvYOZpKEtMxae1QP+3sPI/RZQjJfVVYNiQrMzcm5mR+TNl3yKtBSLd1Xn54/wNW0c8X1M69mbtmoXCigVel8xUhCjbcvAqMm+gnJpmfE6VSVCSCsXOa5YlBDBndV7LuIV9FlCtrL7nxUQRjRHuhZdknnX3J1ui4tOaI5xsWvsWVsq85/3pLLO1Fi1VqoB0nufGHD+qC5g5UvPxN+K6T4EK9xswcIPM3WqJx2Mh9JOwRQqAMPdCtfYUQQlMxr5kNcNRvrKaySoBvtav/f/LMrY24rv8FMsY6KZhFtgiuTp7eyP/3YTK5nzgS51tvsQrrO9n75v/j7eHj8vty+F4nO7Gt+v9Zdg+TRdpffwL);lineShape=1;strokeColor=default;" vertex="1" parent="1">
                    <mxGeometry x="160.06549881832893" y="96.19598273772863" width="46.288739435901306" height="13.018022957436578" as="geometry"/>
                </mxCell>
                <mxCell id="6" value="" style="shape=stencil(lVfZctswDPwavWJIggf4nKb/kZk4taeunXGcHn9fqBopBmRtJ2+yhRUO7gLgwA9v+6fX3ZDC2/Vy/r77dXi+7gf+MqR0OO13l8NVnwZ+HPjh5XzZfbuc30/P0+/Xp9FyfPpx/jl+4feEi5laG1Ep/Jn+CVTl3x9fJ/vj4XRjnzq1ZOwLRWCfM+Vi7GOglLcBpfuAYiEJ24CWqLEBaAqpbwMkEwcL0CDrNqBnKs5Dpwo8xBAoWBfcqANEFyo26ywUGAAi9WzPoVMGByGJpBtAC3Ph7teVKVYDEKVG3AbURNHmIDKT5T439OTEALQMAriRtayWfL1DtnKlbs/h5mjuI5ha8S4achG8CwWEAhQkVO3J9UbSAKBRcllXYqTR6iWkDEYHoR7YJc0UUEiySjpCbnCkZMnUA2UgCM4rMnUSkIMKjNkDKshByZSTDwklnVUQwQM66BtZW2O0gDSX4T6grk6aSYBGFcAOUKgAemtI2eXQ5iC3ki7u4IQyLmu3fUb1kIEexs5YPaAjQF61DQVg8slKoowkqq+jT5pBWVVAxSW9dJ4tiYrzUCghTbe5qdxQAylOJZpcSAnSWxuZp0bAigvE/TOArDnYpMehBEIqdU5xmVl1bgv3R1DxM6s22Ix1eXACUp8FAbTzWYASHilu9GAbmY6YBDRdo+eS0jGgsoofWbrPMGgzGkCxOcQOh6K+druDro1oicuzgBdmUAPmOmzsRBS4LEUfvsD6LINm4QQJUNpqdStUASHU3H49zzLaMG82VR0qMFXHtjTPoI1Cui0ywq/rrLCNVKkMWkqbl7MPczQ6xkU/OXvIsuSj1w8g+09eXf5vrw8f96SXw/E4XbNu3/t7lf413cn48S8=);lineShape=1;strokeColor=default;" vertex="1" parent="1">
                    <mxGeometry x="198.29714673247122" y="63.860111218929546" width="28.85750610281873" height="54.776424601080215" as="geometry"/>
                </mxCell>
                <mxCell id="7" value="" style="shape=stencil(lVfZctswDPwavWIIgudzmv5HZuLUnrpxxnGvvy9UDVUTlLbtmyxzBS53cXCSh/fj09th8u79dr18Pnw/Pd+Ok3yYvD+9Hg/X002fJnmc5OHlcj18ul6+vj4vv9+e5pXz05fLt/kLPxZcZRKeUd79XN5wIcm/33xcAOfT6x0gV2IDyFTLPiBlCtIBvKMS9gGR298rIJNL+wBJVHMHkEjZ7wN8oNADQiIX9wGcKPkOEBMVsCWulPoIWUgAIDjKpQMUbqy2Tyk0iivAk1SgQyEf+y3pJh1Q2lEdABEIpxSj2ZKjgCJEStVycMh82XIoAUco5Hq3lkwMrKERquFQqQLh8mC+6ptZ9kj71AMCFQTwLb9WQCIRKJwkC6jIGpnSECEDpZNy6I+1RooogpDvj7VKi7kNUPebCEyMIrAtM6VAayigGKX/ysGZCAKrRgo2gTSnUSFTHaTXQTMOWsO1DdwBAnKrHzJOP4HdakmvB72XD4XtKUWc08WcUoJKzzltABVzGI5VvZTRluJgvkAMlNbKl/tjresntgFsC5lmXEFb4qFqYID2B+7rEjuVGiSEttFgcrRC1jwop0ntASA0b973B+Cldb9tvaZgRAyo9F4NqjwoY6w9tCcgQgyqkq+teayjieoCIgQdRJJRAbZ1ZWhqBq4xc4HoOWORtTlxMOsrWh+Gca8ZcXu9+t4Mb8To+5miGL5oiqnFzklrgdpeX+3kltoBb1vCDabDxUUD1H49M5wwFCA9Y5amyR5lO6IHOJLM3d4AEuwKdWjnmtqoZmuej7cGj0j/7zXjHwD68OdW83I6n5dL0f3/9hakr5YblDz+Ag==);lineShape=1;strokeColor=default;" vertex="1" parent="1">
                    <mxGeometry x="301.82648509292085" y="77.93750532072556" width="33.51785828702825" height="31.78397217540432" as="geometry"/>
                </mxCell>
                <mxCell id="8" value="" style="shape=stencil(rVbbbtswDP0avxKSSEnUc9f9R4Gmi7EsKdJ0W/++9Dw5EWUzGLA32+KxeHg55IAPb/un190Q3NvlfPq++zU+X/YDfhlCGI/73Xm8yNOAjwM+vJzOu2/n0/vxeX5/fZosp6cfp5/TH37POCYobkIF9zF/SYD058PX2f4wHm/sc4bkG3ufgMM2IDFwC0AP7AyAg8INgAr4uA2IBXJuKQgpNF0q1AAmVgbpwoBtkAqCK9sA7xw4hSDIyb4CW0ACsnxCoJZ1ySZrjvV4AUhcjURkcaBowN9crsc11TwttXGNw3rqos61XGFlgjK41AK4Zn8d4AC9DhPxNgCFdUuixNoi64AIrBJBEIwwIVeKCyBANFwiAlKkPXgDEANkdYMzWygFSG25cqlf1msDdX3fAXDooiQuWfUtFHvSVgdJafgurEZpXKv5NnEGBwEE5ZLk3pABOabQFZ/BgaU0VMuxKRtZtK9vIEv75Lh16W6PCuvuCkvxRa65FxqjIShA6KXMqA3MgMqlpWv/D8C76vEyIiQ1RiIC+JbzNIOMFu3mA7EpfKi7QaaoM/6f6+mS5lgHzDrhBLGVPTJL27PeA9BsNglQbCUp1JSs23OdTQsB0x5JTxJXC32r5rK2N5cMCTcq+3tdk/X/Df9Tp17ivxFPEWAlXt5cF3KnXcFWItSDFk1/pj2y5WvX/7/unfft5eG65L6Mh8O8I9+e66VYPs0LNT5+Ag==);lineShape=1;strokeColor=default;" vertex="1" parent="1">
                    <mxGeometry x="346.85359999109005" y="65.96946374112304" width="6.859903613093593" height="42.12822620988542" as="geometry"/>
                </mxCell>
                <mxCell id="9" value="" style="shape=stencil(hVbLctswDPwaXXdIgg/wnKb/kZk4taeunXHc198XqkaOQTubmyxjRWB3AWKSh7ft0+tmSuHtfDp+3/zePZ+3k3yZUtodtpvT7mxPkzxO8vByPG2+nY4/D8/L79enOXJ++nH8NX/hz4KThKQzKoW/y5uAEP6/+LrE73eHq/gakaOLL6gkXgtSd/Epo6aPAb1DmwO0AiUnGKD4jDShVQKw7/mUtK8k3K+hQzygWw2NAALqAFAIAbSAFhwghk90CMheN+NBSBElIgyAikJyyoI8FBGh5ATRGyEKWieAilq91Iqe6QlRPCAhFFKDOcGbqZr4Qlgy1n3RRnQnJxRj3adUGnokwt3Y1QCBpNQM4IUrisxaTkdrWNMqUdoaIg0sNUTecql4HQSFNPWVmy/eMAOzJm3I2QMaEuF1NqcXogsCMZMK2tAQDUJSahnRK2c8NCa1QPMIUJJSyaubr1JqxBu5rJPuqmg2XaWPKRmtnZxgPdqHpo5IhKX7AOI+sYx90fYJNiztxlFftFUVyZyJfTXCBaDU3zGtN84FUOhgamNP27WqTAZk33CJDz6bQcnH5/XED+KHbjMK2B0axjEZCwLTbOX7/bpCJfnYOPH5V3p/Gv/i42UdaffjdbyqzHLE1Oag26WHDPl5SepjPKHz86XKHt43spfdfr8sdNf/jxucvVq2P3n8Bw==);lineShape=1;strokeColor=default;" vertex="1" parent="1">
                    <mxGeometry x="388.9492960061541" y="92.29911100120671" width="9.346519760080659" height="13.78279475623261" as="geometry"/>
                </mxCell>
                <mxCell id="10" value="" style="shape=stencil(lVZdU9wwDPw1edVYkj+fKfwPZjh6Ga53zHHQ8u9RmklAPrKdvjnOrm1pV7IHvXnZ3z/vBgkvl/Ppafd7fLjsB/0xiIzH/e48Xmw06O2gN4+n8+7n+fR6fJi/n+8n5DT6dXqbVvgz84RKnUgS3ueJ1KjI35m7GX8Yj1/xkSI7AlcKuk1QJm2O0KgCfGSK6vBKpWzjk1L0EYRl4lt8ziQ9Xto2vtR+fSWJ2/haqXIXb+BtfMvEPj9cKARAsPxFR5BMCjJkhE4BtT0TIESqxRFigjmqeZFodZFQzSCpiZoXOZmLACFfqZwDKZAhBSo+S2bsCHZQk0k8IVFCldAodVmqS1TfE3SRaSVYDMCqwktOVuEsKhCDVXML3hq2BNqhUvZpZSFFWSq9uy1JwN3RvOeFZlg9WXoVAiyGEnsRGGpQE+XkfbQEtFUK7M/DEdeO2cgfyGRnkFEOa4SryiYj7hjVE6JAH7XcizYRQMcodmS/QxVicKRcexmsDQoiCIm3drPqAIRkQvt6bgUeyVpW9UpPfRBkyZpi6W62gM0nhbI3d8MdgNtihZVgtxEicN9Ym8A+mRbnrDpkysh9V3hrScDeV141q0RwM9hqHm/XbwTO++/nyD/xNvh8+zyOh8P8dPr6v38r2dT8ztLbDw==);lineShape=1;strokeColor=default;" vertex="1" parent="1">
                    <mxGeometry x="379.72721731009983" y="63.29062382681752" width="6.869371669627829" height="8.991017762135622" as="geometry"/>
                </mxCell>
                <mxCell id="11" value="" style="shape=stencil(7VnLTiMxEPyaXFt+t31m2f9AApZoWYIC+/r7rVHkMG5nCnHZE7dk0hX3u8s9u3j18nDzfLcL7uX1ePh+93t/+/qwi192IeyfHu6O+1d82sXrXby6Pxzvvh0PP59uT9+fbxbJ5dOPw6/lH/6ccFFSW0DB/T090CL59OTrSf5x/7SSV3F+kK9efNiW9068Gw+o0iIBeMk6npAlegLIomkEqDQGaKLOnhDSNgBOynkEOFElgCzNWa96olJ0EuIAKE0aCUOM4keAegmZAHIP6xmQuUpV1ACqOBK4FCUWq1Iibk3IpTAanaWWbUB2UsdIFyetEkCSNKqUVSrJVvxsjM5FCjEaCpRqT4jEhgIvuckGBsjijNFQkgQOgDZmqyZRdgIq3tR0oD0ACsTRaORSIfWgTtIYaTxpJDWgcTZeyrRrIDdNieYmlXgJJpoCQnZFkks1SRttiDzStdjkC0EKMRqAOtqA5ukcBcSxVcau46ZG4wGBOhXyJRh5x3wKA8bqQU9i+qjteqgmZq9afTBcWMiqLZ13/FklqZVnEa5Sq5GnGdF6i36Tr0z/ZpPa07qEvI76hB7wLfk2Fn7sdbopP8YrUfnmrL04oBKFmu+t8HxApP26oU+Y5hh6Dl4GaGcrq9aVSU60KQbL7CdFAICpYjAkZYTHnbNy1X9ZHeOIZihSEk8Sr02J8Q6nAiAZTlUksBNqpysrACNhACSjktJiRuTMWAPAsWRSW81QKZP+C4CbvKQsN9Dvoo1DYUaXiaqCDrB0nU8IPNKwwRjt+5NNL035HZgNapuAts6BNiOdLYDGodr0BqDyGjX0AjYkUnJLPUxeisxLc8WBIpESvVTUUZSla+vcd5VMjQPmixJjwwB4E+pCOxMCUaaS8xxguusC4CVnJvqiEi/q4CyAcZKPA5JtG+CWjLZhaBVzd+M3q4U2jG5N+T0maagnBm8m6XqRGHKi90kMP4nh/ySGfvx/zxs2DqhTBbDdAiIQRouT5yHLEqabPz3B953Ruexr36VdvqJOqzMtXcnLgDjdyzGl2DKiTgA+ONGodIxbw1hjq4Jg9yNLarFVgZvYQqWsDdd29datjC0gTHaLVOmQytEm37KeIHFIzbI23BlYLqXSOdoqcCzSKdiFytIB2TavdjZ+Dhw6EtsXJlEzaOElBvATGXaULIQ6cdskkW1Vcx+raxtItqLJGf7Scl8Ibm2GzRp2Rcu2ttVmkCzMjwSi2Asr6ANLvtLn3ooVsi6jExUuNM4+dPp0BqCi2e0zTT0j8nV7sI0SLcCxYdVJ6dlFnt5us61npAVd50uYr3kkZG5qYblPxw35ZByU6PLfdca7cigja5du/+yqPctz/0z6LNcvkkKwd3phw+6okz9V6SLV29aFlGaXZt9H2EqevXEKlvuiW7MFe5jW5fz/P/rG7H15fHh7PXe/f3w8vd1b/25f5+HR6VVgvP4H);lineShape=1;strokeColor=default;" vertex="1" parent="1">
                    <mxGeometry x="408.78417895051575" y="51.48215901006279" width="121.20750345228164" height="51.7160447772632" as="geometry"/>
                </mxCell>
                <mxCell id="12" value="" style="shape=stencil(lVbLbttADPwaXQfc9+45Tf8jQJzaqGsHjtM2fx+qqhQvBU2QmyxztORwONwh3L3sH553g5eX6+X8c/fn8HjdD+Hb4P3htN9dDld9GsL9EO6ezpfdj8v59fQ4/X5+GCPHp1/n3+MX/k64BC8jyMvb/xcO0f17832KPx5ON/E+wNUOEAtc2AbEAJ87QEiocRuQI3LrAHqmJydUQe1rcB7ObwNaQHU9AI5k1JSkPiOBCInPKNXEt0Ti65zuQhEa+36D6ymtSCz/htp/30WEug1wshS49EBmzraOKAagsuA1t9jX7FEYoNimhQJhXc6IhtWGxGiNaCsA7VtALD2gIjCWPLypIfKinVWeb8gMICir4aHaUEBfg1NaC0/JiEm4Wr1Vd0Im4lNWQzLT2VhC0ZYsXHl5Pc3M8VR4VtooTHcVtZ/OTP2uLR29sa/AAa0vwFXkT+a/P0FbII0CvBlOB2EcVSsKNfnCmpzRzCQobSylrwKqkmhkJ8h5G5AzxPRN9w6pIeqi6kenFGqSPlpX1dkQltLcpY9R45tHRyH0BzTqL8Fa5LiKWAVWF7oaHSnA2d2v7iGEUpm9allsmeYj879LvFC3W621EqkXiZV1VtHR+LKSUGSLFqm/KKQ6m9kG/7nnJyXKp150eoUmj0S89Ku3wc/j9eHj6vl0OB6nm+vt//aqqq+ma264fwc=);lineShape=1;strokeColor=default;" vertex="1" parent="1">
                    <mxGeometry x="497.37359583047964" y="69.20394478097353" width="40.59164462287148" height="9.41737398415838" as="geometry"/>
                </mxCell>
                <mxCell id="13" value="" style="shape=stencil(lVdJctswEHwNr1PAYBng7Dj/cJXlSBXFcslylt9nGAaUMCTb9o2CujH7giHcve4fXnYDu9fL+fR99+vweNkP4cvAfHje786Hi34N4X4Id0+n8+7b+fT2/Dj9fnkYkePXj9PP8YbfE69GYj+y2P2ZTgql+O/g64Q/Hp5v8FKpcIf3jpJsE3KgVHtCoFi2CVGIc08QKm6bEBJx7AjMlAAhevK9BK7keZuQhILrCCFS8tBLQTqCyix5m1AL+d6G5EmADd45cr1OOZIDOhWm2hNEyAMRKVNOfWoIVWBEUJV6Qk0wENJMnPFzdq1rRCWY3Ju9sK5R0/eDApi4Wvz/k1W8o2rwhSIoBkdsDBaKwKOLGNdMISF8ZBsABvd7iub+2DJ9wz/FBFirG9UyZW/xHjWLli63eBCvQiFYfAR4jX619jrgT+/JBUuooD0qIRtChhm6QhBo8qiS8an2DhCD2hrPTU47kBNlpQYyqIHcMvgGX2FOJFngYU0Wb/GoqXjbetU/AmvS1oA0iR+uSQH6OztgtSYzuH8ZX60iWJPB1HwgAfGKC/0DMfDPZ/FKMBtC0ekagACNpyF4qkCC6CTr25CeMHBRybZP53kYrhO0pHoJSYOG1iIm6QlqlUNRmJN+JjB2q06WfkO47j3reTTvNPOWk5rf1iXoeC0dwavRKDP8Yt7DzEvVLjmxSVx3am7DZVYIVnL1bZ9peAcXnMq2NeJtoi7GmWtpso7PdjHVVRnhpbn7aq/HS2NxBo/2s7Fx9v7EVTA25j6+AXbqEd/7J76nj0nphPHFjo5MBeWDru19fKUN23X8ogAKbCuffTu9j9eP60Pt6XA8Tu+82//tw06PpkdhuP8L);lineShape=1;strokeColor=default;" vertex="1" parent="1">
                    <mxGeometry x="134.08116718812244" y="155.43307253706223" width="30.49089926993717" height="51.733569321752235" as="geometry"/>
                </mxCell>
                <mxCell id="14" value="" style="shape=stencil(lVbRbtswDPwavxKiKInSc9f9R4Gmi7EsKdJsa/9+9Aw5kexc0Tdb5lnU8XjiIA9v+6fX3eDd2+V8+rn7Oz5f9oN8G7wfj/vdebzY0yCPgzy8nM67H+fT7+Pz/P76NEVOT79Of6Y/vM84UXI6obz7mFciRfm/8H2OP4zHm/jkKXITL458ug/InlTaDRKxvw8ohVxoADmS8n0AO0fOtYhCnPEWLaB4ShEALOXYAiwnBOD6eQFkYkRTqiwugEIJFCIb7e0ONzxsIjSQxH4Lj2q9sLgAlALYIUXypQUEUlDrJL36jLgQoPy0pSkrFXSGUDNeAIEiqFxSyq3AM1MCKamvnytAC2whzSTtoW0lAIFbxoFXALBDccSySgmoz8pUpD+0gkqbmmVFa8JdXTpAJgcObYDYqZUpoh10S3zIBYSkazmTN+pRa+FOreUz7+ua+tMe3bQBQJO6esZbo0Etl3oxmZWlAns0rcwyAl6/DAha1VwBZiSoIXwhaQ8dPDGg1ffyZq0+shnvqLQcsTkbSGh1AbGHNrby7gIthuvltPBDBYSHKoCFHexH/Y3uYZ8x13tpOSw5YKic6iVT482dgN6uv7vGo5axgaUzbEcB/H+aV/r8kXNJINe2pPkGYH9zovpqfFMue7iOby/j4TBPf7ff+3HPluZRUR7/AQ==);lineShape=1;strokeColor=default;" vertex="1" parent="1">
                    <mxGeometry x="197.30318254986742" y="165.967595261067" width="11.818672487770831" height="20.310168090758452" as="geometry"/>
                </mxCell>
                <mxCell id="15" value="" style="shape=stencil(lVbLctswDPwaXTEgwRfOafofmYlTa+LaGcfN4+8LVbViUPE2vUkklwQWuyAHuXne3j1thsjPp+PhcfM63p+2g3wbYhz3281xPNnXILeD3Dwcjpsfx8Ov/f38/3Q3rZy+fh5eph3eZlxjKjKhIr/PI4GZmP8MfZ8Ru3F/gUiZhB1ClVq5DgjUqlsfmVq4vj5TDj6iQCGB/S2F4gCJWMH6QtUHxCRgfRSa5tz6BOKJShK7eP5u8Ol6SeftLhIWcIA0Yg8wjhlUQJSqB0gkwQDpKDVOMwAU0uwAOZGCIlsA1Z9QBKoiVopeqEUxgEl9GWqk2IAuEuUOYFvU64BGpfmICjGIKJ1nF44qqSDjcKejShlUbfHtUuVMioxA3BkzQWEnCp0xbQQIu53rs/CDfZmo+HgC9M0Uv+cfNy5TkHT5QjpNos3vbwVHtqy9LUOlAgIylyVfMDshY0DtFMEUAKUWkvqUc6AEJP05AJBkt0HyPrb2F4Go1xeOAZAs2uq+EcayM5Y6gFAAzUuFsk966rDAyFqoaN8eEyictv4ONFpRa7m4hBfzMMX/RNipgKd1ULVCYtdpt3Qe+SKxGnCttT9BrYUBz63FYVnBnm3y8xb613vnKy8k+/h4YD2Mu938Pruc7x9kNjQ/5uT2Nw==);lineShape=1;strokeColor=default;" vertex="1" parent="1">
                    <mxGeometry x="199.37217656172675" y="146.17010315224513" width="13.595005849843801" height="7.4830758305526315" as="geometry"/>
                </mxCell>
                <mxCell id="16" value="" style="shape=stencil(7VjLbhsxDPwaXwk9Keqcpv8RIE5t1I0DJ+nj7ztbY9MV7Z22xwK5rbUaUyRnSGo3+eZ5d/e03aTw/HI6ft5+29+/7Db5wyal/eNue9q/4GmTbzf55uF42n46HV8f78+/n+6mndPTl+PX6R++n3GaJOuESuHHeaVIsl8LH8/7D/vH5X6TNO6PKiWuA1oVawMgx3nlKsCKBxQTK+uAnkXzANAiMawDYggSwoBoQJAzdROtI0ClMUCXYCPAJCRqoacR0GkiAIh9AFiQ0glAvQWLUpkPVdIYJUtSlCYixhHwtnIdEKR1D2A+mEluHlDJkaxKNw/IJA943Zp32giZEERTDwjEaaTJ+xApAETIY5SwYnUdULvPQ2vSiIIKiOAsqCgBJACCDytjazYpzmkIiDhdixSXOC7RajMRFkfqhBqofLV6C4U4rSqhjIBKyYdaqe5ITRLLdJDoLPRZg2uAPGq6R8nMB1BjDCtEm4ni4LSNUUJZiIR8mn0eUHgKURzY6qLU21w8rwPqhQUASB5qFO3+SJkA0HCKeqcDcbqoL8YIa2IWqs80EscyDUBxikOLIXrAkfoF+QLJdOmz5Bf0Lkxx2XMJAmJcqu2iZUGijEvRDxuwwASExu+dRqAzATTprmWh8jEL/aJlofBwTZfRArqeEj1MFsZM9ySN+9CcRAv3oczdYKEHJiDkwc1L0zDBysxbR/tLQFbv9GJIuz7EYVIYpz5UASVkupj5kLhG9ud5hlz0xEzKEgykscVN5GJFA2oZLWidV1bJat4C455d+hAp4H3OfZ9z/585dzrSWAIar2N47a6WqvQuqs3Te5ol2NgKuYzkyyi2bBBo8zT1Vvj6XEfWZnV/d5XIDATf1utMxrX9fQxqofd7nMcNiFwLBbwc/z/SMb1UXyUjLTAIqPM30Fmvomwnt5/9f4VMzO8nuqnV33wCFSaGJPPnZ12kdh//SEWD1uxUlqSzC8C/fiD64348/P4a9bA/HM4fs5bv/dcrLJ2/fOXbnw==);lineShape=1;strokeColor=default;" vertex="1" parent="1">
                    <mxGeometry x="234.82950421706437" y="140.55791587696513" width="22.260237738546646" height="42.692665758277904" as="geometry"/>
                </mxCell>
                <mxCell id="17" value="" style="shape=stencil(7VjLbhsxDPwaXwlJlETpnKb/ESBObdS1A8fp4+/LraGtye1OkFuB9rZZc1Ykh0My2vDdy+7hebtJ4eVyPn3efts/XnYb/rBJaX/cbc/7iz5t+H7Dd0+n8/bT+fR6fLz+/fwwWU5PX05fpy98v+IqlTyBUvhxfaFvWvz15uPV/rA/3tinTI0tIFJs6wAuVJoBxEQMADlS6BZAHIA9UxBjHyhVYF8oFmcf0PeFUnD2pQD7TjE5/5us25dAYhPE1DqwTz4/lTLIp9p3+/1OBTBcmNjlP5Egh3jwMwPqSMGaRxItoBMzAESq1RZdooRO0BKwJ2jdVgDIjfJCBwyC5rRgTZ0EgCSUbVqLUEQnqEu2jmojRsRVCrawpZCAoKX6LCmgA5d6XAACDLoz1eABBYizF2o2raJpBWrr4vuRqHzQCZ2SA1Tq6IQ+fh6AFkZUqwAbdMuDyjWAU3RrFBBAqFoelJkASkPT6gE8zlwjzmm6ZwoZAAL15E8QwIOGKA6gmgZ9silNVqKtkwCXmla/I65CHhSQbPG1RBW5pLPNEidt1O9aDNXGoIrLKIZZ8jMgQU0rD66RqYDQeNOst4VEM5aom596QkQAWSiOcXm3haa1LaDi62NAzQAdKEDTMcwzf6aaR1hrR7i8KpdorGsQ0a4lSk1EROjAWQiioDRl3zb6G63vvQDtjNl1gTaWibXJntzuEPB2ldrCJ00T4DrqNuXGYoH7pAKKlZBOasErrts2Ktx//i+sf+PCig74FxfWqeqsS/qfGdqsVJnRAnLFfd6vbgVPT/Fr0kQ8Sqqf/2qfgX2maFOqrKCFe+62c7x9dLM/N5ah2pv8NEBZ8M1UKUGL52JE5TDm4pq9bSsskOAwCmy2z2OdWYm3Lvoo8mch40nHkC+vGYH5fO/Vxdv2+vD7nuRpfzhcr1luf/f3KvrqeifD9z8B);lineShape=1;strokeColor=default;" vertex="1" parent="1">
                    <mxGeometry x="285.17169759134345" y="154.1329315124808" width="30.390486811986495" height="18.958650944935016" as="geometry"/>
                </mxCell>
                <mxCell id="18" value="" style="shape=stencil(lVfLctswDPwaXTEAwec5Tf8jM3FqT9044zh9/H2hqlRFxN5pbjKNpQhgdwlNeve6f3jZTYFfL+fT192Pw+NlP+mnKYTD8353PlzsadL7Se+eTufdl/Pp7flx+f3yMEfOT99O3+cdfi64FiimGRX417IiQhL+rHxeAMfD8waQCsUwAgrVfBsQhbIOgJCoMgAoKQ8AjZQEHKlSqgMgRpJ2G1AalRGQEpVyG9AshzgAClMAVapCYUy6RmKUg1JsA6ApNfAGydTyCGiUQQ4S+n5r45iJQSNq7+vmDSWCHHrR1/gKUwikMsYXyiCeKY0JtEStongeedSMFjC+uvPYCQGNwrv62A5IOtRGElXrGOCEVdtxyOoJ4kWpvgMUkPCsXPYn+svb6xkbraNPGekgKBXHCZNSAgAjUfE6UEBrA4TRwFqC4g+rEFdAxjQVby/Ga8QLqV78JpwIhCORQvOABjxVuBN5A6jgSJk0+vgA2qAk2acswCq4C3FT0wT2N2m6CkXIVO4F30izIVYQO1JIN5vrd04X7kYIqAGVovh4Buf/aLxWYnegSAoKmos3lyKwopn7bdEBOcBbVrO3u8SQEyYDHpumqdPqltCc4c08AbqJuZ94rVIfHW7eymMKDFlqNQ/VxQsoUS1+mMIXrJln8vsj+zUrTOziC1C9idDJbJ1jrsdXHx/ghW8mom7wgkPOZuBYOQSddHa1sWEZjo7zwDHGm22BBtvAoc7n+sL1eCPwqDJzYnQ7fXi8/g+APfyb5p8Ox+PyMbD930//trR8Oej9bw==);lineShape=1;strokeColor=default;" vertex="1" parent="1">
                    <mxGeometry x="379.06623561152765" y="144.68552768382858" width="17.577265770108017" height="39.675355954810584" as="geometry"/>
                </mxCell>
                <mxCell id="19" value="" style="shape=stencil(lZbZbttADEW/Rq8EZx8+p+l/BIhTC3XtwHG6/H2pqnJMWrpA3mRpjjkkL5chPbztn153Q+S3y/n0ffdrfL7sh/RliHE87nfn8aJPQ3oc0sPL6bz7dj69H5/n369P08np6cfp5/QPv2euR8ptoiL/md8EoRD/vfk6A4fxeAPkTjEZIHaSvg3ERsIGyIFK3gZSpJANUCuVCq8k1QCtUANAVUAM0JlC2QZ6peosCFUQJQnE7C1EBGTqxQKBOgLa8vkKZIoNAEKlW6BRFAiIlYYwFWRBw2qlIYkakIZUf6XpDbKQljRdgU4VJU6IbZTUqx4AkKkGDwjIg+Y1ib+SAB9apeaARgzU2jIFB+TF5joQqbvEBYqg4hRwmVZpCAirXinbetC4dWRBpWbDqo0nAqc1rOIAXjrVOlB8lKYSxdIod8D/TrUlvnpXogEVUF2CeAUSJVyirvNp40GJC8x3fUZgmNREdjUaqQETKs7s1KfNFVTQhzhvCoJBIrSrZFfUAgeEBoVt27iJwyYhnyIqU2veiwaSrVOr20yoXw25TcEa0KJKafv8XaZLoAw8CDplbVinQY3mbqdiSy5EaEHbBlsLDMeuTmUnb17Ssn6+U/L/D7OsHrM7n8H40Z6VncNUUKuv1K2KEjHSafcjOsPJoIJxum4U0Phk38EE7kl6PtnaV42gNq+9JNmAhrxsf+tA8wM9VNzmy/L5CrRliVgHVvfVTwMmy/rwsR6/jIfDvF3ffvfrtL6aV/H0+Bc=);lineShape=1;strokeColor=default;" vertex="1" parent="1">
                    <mxGeometry x="418.58001768692475" y="151.18482690521978" width="18.664722128366822" height="24.963865829875584" as="geometry"/>
                </mxCell>
                <mxCell id="20" value="" style="shape=stencil(lVfZctswDPwavWJIgOdzmv5HZuLUmrp2xnF6/H2hauiKkLSZvMkS1sSxWICDPLwdn14PA7u32/Xy/fBrfL4dB/kyMI/n4+E63vRpkMdBHl4u18O36+X9/Dz/fn2aLKenH5ef0z/8nnFCnCYQuz/zCx+p5n9vvs72p/G8sK9Upbd3lOu+vS9UzAFM3u0D9ATnOgAHKrwPkEKxdICgABBCSOR7QEokcR8QHfnaAYqDLsXYPt9dysR+H5ACpdgHzVSASzkQ9y5FisC+COXc2buW5u0ye+LevlAQYF9XRZCW5T1ALTZFHuS0rpgX1UcMCH0RtCwO5KgqkQyg4BMySU/V5CigrGpv+R7gIfNqoFDtCbA9xXI7VhLAvKrdaNKaKAbIjBB6AFPFAONSKFQx96QPempodAKT610KvnXsXpZcL0oqIoIqHVqZ7gDNEuqHaPtNAQ5zya8AMGhtSG9jKCjoamPQLNUPWrSnd7hHta31zlntDrXJ/94RyZBJqKC8rsZJzE2p9vKaDb/VJcS+ZNmXPFayQDVZAKPKCaWVbEAx5lXLZYooaE/JKFmA8+fTgBLaEF8MLA9cysXyW8c60srs7GYy8RukNTFlM9a56fP2lNaW69OqUWW0B7Cl94Lx26tGJOmjnoYM4HdwtiEKt9Jsbz9Cta9cEtjVuigY3dDBi/Lqc5P3RSEcWvlUVoxYRtjUqyRpFhCXVIzF2qORJXZXCg6OB24T8+5/bUzZDti2p+T2ZtPeNZYt8oP8WXcCQxKtVFh3asShtX2iBJpf/THLqioa9N9IsGYMzUJvFze9RGQwRZi4b3ylLFr0Pnvn+dheH/5fsF7G02m+ny2/2wuZvpovc/L4Fw==);lineShape=1;strokeColor=default;" vertex="1" parent="1">
                    <mxGeometry x="449.1721819665602" y="154.67980334245374" width="57.824202388026755" height="20.138992059232805" as="geometry"/>
                </mxCell>
                <mxCell id="21" value="" style="shape=stencil(lVbLctswDPwaXTEgAT5wdtP/yEzsWFPXzjhOk/x94GioGrSEaW+UuCCJxS7IgTav+8eX7RDx9XI+/dq+j0+X/UA/hhjH4357Hi86GuhhoM3udN4+n09vx6fp++XxiryOfp/+XFf4mOIoQ67XqIif059aQPD7z88p4DAebwIqZDb4VIF4HR+BxeC5Asd1PAKiwVOBkNfxoa3W8DFBoXW85hsMPiQgB6/TSCagACYnX93eJhygOHhNr2SDnxlYxLNAwW59KU6+CJS687PDZ66QpCeoynpAIUjFViADVSeAodgA5aA6JSixMT5rSNwaZK2BLbKKtDoBKQNbUnOG6KiUEwQbUNBNmqjXtQZ4tGpZyeoil1b5ZaGGuxwCBCdpbr6aSVIlOWXAfn1GECdlhNQ5U4AdpXLfKYL2Gj9hsRsIpOAwqjKyqiAITufSkhW7PkLwzq8+CR1enPMkbSR2/QTRc3Ju288ERagOQf8dIKH3DbPbHOXON6ohzzcibfrGmV77Cnh3IagPvLJJ7RtkUV4dH0jqk6jR7UeCELs7U5XtHKlSf2kKQ/Z6qkrJ7qBZRcdrygnbHW6IW1Zf7dWqtfEuqoS9P6VA8vpLbJWdA6i1hGXDLb1FvB75D48XHfx9+uzGw2F6Od3O908l/TU9s+jhCw==);lineShape=1;strokeColor=default;" vertex="1" parent="1">
                    <mxGeometry x="499.0745166390541" y="128.68862465761606" width="7.152913803790398" height="7.529491094525535" as="geometry"/>
                </mxCell>
                <mxCell id="22" value="" style="shape=stencil(7VjLbttADPwaXwkuuc9zmv5HgDiN0TQOHPf196UqrKKl4klzLJCbLO9o+RgOubvTq+f7m6f9Tvj5fDp+3f883J7vd/ppJ3J4vN+fDmd72un1Tq/ujqf9l9Px++Pt/PvpZlo5PX07/pi+8GvGhUKhTCjh3/MbIcl/X3ye1z8cHlfrJZPKsD4oaboM0EQcxg3sE3wZEJXiaJG9EbBDYhIeADlQigAQKY8mlULcAKD0mHRAY9IAAdkBMhUQVgOkOgIKRWwS6wioFCoAZOLoARX5YFFqI6CRKgDoxqRGRQAgdItXgAYSFxvJuENgJkZkKj1Pqy0qCFNMlDaABBJh5GzZAwJIdRQqm8zBHQK1kd/GDRimsPGh9MC9XqOVYhoANRIXCGBXcuY08MEAeUx1EmrIafElp8Y+FNZKZaSrNGIgGyYSdcyDSR+qoCrdgAUQiAHAaj65HRI1UHIrNi9eRygDLXgyTfRCVZ0oj6mOuOaS+CKdAIAblohaPADy25RpjOv0CUDXGHtiF0ChgopavfbZnglwwwDB7ZBgWzSTHDdejLzkdHImKQa0TVsUWBCWuBo9gBFg6csrQACZTmZS9YAM8pBlkziFechKJfqwZmBStjw4kxKkt+3gxNW4JKCAzAd1PlScB2s4ozBNbQyF1UaFTQFVVKLa+/IirtyHrktcaup3QOOJsbWJBwTQ2uNmxLIowa6oXu+nPZHMLP1jlemMG7WvB9NW1EZTn15WbH2jBcWNGCN62wDkRqyp4pB6vxdQ1OdB8RBXbZgenbYOlIHTNjo78tl8n1HFSdfqZQfu48c/1oPiGc7qIY5RmkZTVKIm96MPNs7AA0H0h5q6KNX/dCBIHvBxIPg4EMwmVQdgmLnIviBMF9AooMk36qmxAvZJ3XT2CAGhdRlahAlPiYEpjdIXErx4MNlyPY4EfH872/esXFgexuUCM8B97F+M7zR83Vl/WgrQdu3/9uWYDqmfi16Woyuf4l1lKNfNtyhc8iH4Kyvucv/6+s0ogvtTiNSSW9/Q97MPJr6ueu8V3dvr7eHlPvDu8PAwXyeu//f3h/ZqvnvU6z8=);lineShape=1;strokeColor=default;" vertex="1" parent="1">
                    <mxGeometry x="518.9003331206823" y="134.23073933715125" width="23.88693474203016" height="64.29157589766328" as="geometry"/>
                </mxCell>
                <mxCell id="23" value="" style="shape=stencil(7VjLbhsxDPyavRKSqBfPafofAeLURl07cJw+/r7cunJW1HqK3Aq0t7WXI4nkcMjVxHcv24fnzRTcy/l0/Lz5tns8byf+MIWwO2w3p91Znya+n/ju6XjafDodXw+Pl9/PD7Pl/PTl+HVe4fsFF6nEGRTcj8sfVUjCr38+Xuz3u8PCPniq3AMi+QQAQrV0gMLk6m0AZwo9IGXKDAClvW4ArsTgSJzIpQ6gXjngNHtK/Q5CyQF7R8n3LpBEaB97lyNlFCJHIr3HFJHDgVyf5UCM/GVKfYA8cYEBjf36jjLyt1ASY+/R+soha+9A/GMgP6wPGBRjc+/NPmVgn4mdiU9A9sXWwPWA6/aVpJr8MvJX6Wj585uAq/Z54HPIVIEDJVDsHdYjVpDhGtrrBsgCKSdCoaecBFhj3l05cEVEcsAJ3aL0rJBEGdBOKuXcAwp5tEOmYo5UYeHoib0RFoHMECXaAECprpVCtQBGAI2Jtz5kBFDtqTZKEaiXcsM6nZsgrwP8ENYI9U53CMGSqYI8qA/ZsM/jHZLltzhiQA3Ng5FUbbQFhFUPkJwFIFHSmLBYgADV06iLtz4UkDglQnU2rKhvKtWqCSs35bkFkF7ItEQ90Jm5XAYuZVRAyk0DqORQHpLtnQoQVNNKPhNWoYioMUqftEOuA3Lj5vJIQCvnEc0cqWBAGGo6N/7eBMh7AFkbTl+iRSdLkIeU2kh0nal8I/x6U2Q7NMxTG57C/rmprS+F/1Pb3zy1qb3xt8L4a30YuZ4DChzQEjMJYNz6U7RzZKo4BbWp+bXqC/6SUuUaWg5SLp/adLMQ04AATD5YQAFl6Z39ZF6Mouvi2Mp2sQNqzHkYbHHn5/bFvmgHFeR5qLO5GwAiuWH93Pr6DXs/NPEM4rM2yAdwftVdk+LQlHU9Y8SmmXk454RharmmfJ3V77xD+bO9Prxd2Dzt9vvLfc/yvb3g0b8ul0N8/xM=);lineShape=1;strokeColor=default;" vertex="1" parent="1">
                    <mxGeometry x="561.4160954222596" y="126.61084166393948" width="22.442370077513868" height="41.30353023951496" as="geometry"/>
                </mxCell>
                <mxCell id="24" value="" style="shape=stencil(lVZJcttADHwNrygMMOvZcf7hKsuRKorkkuUsvw8YhowwFDvJjRqhZwB0Yxn04W3/9LobhN+ul/Pn3bfD83U/6IdB5HDa7y6Hq30N+jjow8v5svt0Ob+fnqffr0+j5fj15fx1vOH7hCukcQQJ/5gOmEr7dfBxMj8eTjfmIlTV2RuglW2ANqrBAVRJeRuQKgUPiEKs24ASSTtAohi2AU2pZu9SJAExtER5BagCAJZVnyWtFBMAVCrsY4hUkEuNsjhAUgrApcBM7J/IMt+x9UT1gCIkQBsGYK+lGigAqi1Nv7W2AIz8CACZxLvUZKbmPiBS9GmyE0Eu2X1p9QICBOLcx8AgrbXN0lkAVkFA3wbg0vPAgAdzoNae6YhdEg9IAl1qTNKVXMRaCpQ801YQigpCSVYlVyqsUV4XNVJr7uWtmRqKofZZssYE+0wj9cQlpoCLuvkCSnYFrrjm+0xusAuMLnl5F+PhL0F7QM1zlW+ltXgejPuImyuvShS+kOZx8I+AotS8SzfN8P4Msv7dBVEoACJMzZ2+LWqkb5uanZiqUAAAq6+upiMUn/ZDMQc4UJaWskivUAQtIPRTOoW5c961Z4rrAQc6N/ckqzGA7f390uCawbPsF3vzH4ho2XIWDRkjIP9h7iULv7BB6jwol/TAnSfO28TiDRy0iaonF8v/zk5Y/8/cr5D28Wf9fDkcj9P2evt/v67a0bTq6uNP);lineShape=1;strokeColor=default;" vertex="1" parent="1">
                    <mxGeometry x="548.5975742500193" y="137.5868943713059" width="35.82427414914207" height="6.634793762377598" as="geometry"/>
                </mxCell>
                <mxCell id="25" value="" style="shape=stencil(7VjLbtswEPwaXRckl4/lOU3/I0Cc2qhrB47Tx993VYG2uZLGCHrNzVFmRHJn9kEN/PC2fXrdDMG9nU/H75tfu+fzduAvQwi7w3Zz2p3118CPAz+8HE+bb6fj++F5+vv1aUSOv34cf45v+D3xChUZScH9mR54IYn/nnyd8Pvd4QbPxKXHO8oAf/lvw2eSgOChf32iVBGcUweP7cEKXPq3M3kA9ySugwdyGYXG1T405AE8Uu434yi5dXimGA3cA7gQOwN3AK4qevv6gPAam2zwGQjl2Srl23mW8ZESm9hHD/CJOBhpE3p/omrEYgroAJl8L5cqguTVFYzZYqCCCJFqH9J0Sc61mEqvWVGDMiSE/tASyOOout5FVWUG6cvZ2k4ErpBUpj5KkqmAFYr6sjeGaNxAlHTHJi3FUymAECizJWSQCzWRD5ZQgZdqWdBBEEGoBntolJ61kpgzpFbM1gi195IUWI6UYHWosJjWWadRZRIiJCr9CtU3sywT2JpPpUQ1UjdQkiU44CU1M8fZloC91czM9tARFIHRzMGG1YFCNhqhrxoqHKMzRIoza2RESBRNTkfcekoL4q29UZTUS4bgmx2XhfPWS0pAc0LVucBbAsyH3OrczRkSqK2aorH3kjAsZJpAdoVEAbUs52w1VntVtKdKyXhDYPmuc3+7VtvWwhT7FVSagKqxWmeW1LB8RzuY3CFoDyymCsQ2qyy3oHmd0bACb7A0+18IAodanV1Cf4YbLVcmz9I3CK1taEtaST+UD97OJsW3ICyfwKaPjiYZZHSwlVhnH0GjjPWdDleoN8wyQUcbNCr9/y0EDQCft5DVyv55C4G3kGKNVmCT0e2aznq9ZawRYr8hvcdUTLARwgP86GazJZ0DgQajBUxMXbtaLQdJrMhKQOO1RtVMOOFONUx2WlZCRSk5a0pjUiKh1TdiV0BNSTPBzIFXKZf7pL1HaZAKmhtbmt/Ihjb00e9E9/H64/pR6mW330/ftG7/bz9i6aPpAxg//gU=);lineShape=1;strokeColor=default;" vertex="1" parent="1">
                    <mxGeometry x="632.5852381468305" y="116.82799395457027" width="30.59370369547679" height="45.65881073586581" as="geometry"/>
                </mxCell>
                <mxCell id="26" value="" style="shape=stencil(7VjLbhsxDPwaXwmJelHnNP2PAHEao64dOOnr78utoa1J746LXgoUvW02nqVIzowobdLd6/PDy3bD4fXtdPy4/bp7fHvepHcb5t3heXvavenTJt1v0t3T8bT9cDp+Pjye/355mH45PX06fpm+8O2Ma5lCn1Acvp/fMFMsP9+8PwP2u8MFIDdKxQBiI6nrAG7Ugo2QqIR1gH4vJgNITJ3XASlSyAaQI3FbB5RAxQECNZB0Feo26VRH3RYBMq94BsyLXAYUqs0CAsxBhErxgCDrgB4pBw/IIEJXalSfQ04AUCk5gJYhAoBQtORLmQQB+ljADGgUADVi0KK4rPUbAKEhRDyZBJWpU7Cdy5kYRWhULTeyFg5wo5crgBYOKKgnii4HTRrVNXnJqS90lDRTigYgnRrKIfrOTTGBbej3km2c0isiQdThWzNAKCPJXeXQcQ5NfFkV0BFAiRA8IIA+NLUhyyUlC7INNSa2klPVMihrrWPFMyDAHCaAbZw06ALTkmwfJFO8kbRdksTRmbWyRpt061BAU+PskvRNBgJSarB4QEF+r+RjvyQBbqz0ZttpjRlvCMgprsCNekGimgPSdBz7+EwNpoAiBO8a6lSMFNeIrd8rvRuqUqLq2Noh+bTqxeZwsQMsIwrlK1Ej22haJvZJCIgwDQ9yVSak0TaqeNkIUCbVaLMRBNN1EVBRDo26dbLGo/lroi42Qqlj6FoTdbJk0m0UucAfjVhuPPk/Yv27I5Yj098esZRMjq4KQGY5TWAWULAgplON5UbpVAGAI1WnURlnteVWe6vUw2AARnZFDM7DCpcXpGpx+zQxSEAr6A5NN7z+ihYMZx8Jfr9Kw9XWLKna32c4UOpg5I7GdRyuV6cM+30Zprm23wbbsBiGpa0BkuVcZDzGVBK7oljGzLtmwm731ON+QueA7IUWsW60Ce42QFnRbswMlnVKdHQb0DRpB9B5EUXIvg83Lll+41ZGH37d6Tzt9vvzldDl//0dkL463x+l+x8=);lineShape=1;strokeColor=default;" vertex="1" parent="1">
                    <mxGeometry x="669.7978599089313" y="134.13644593101367" width="21.029535264995047" height="24.811981986094764" as="geometry"/>
                </mxCell>
                <mxCell id="27" value="" style="shape=stencil(lVfZbttADPwavRK75J7PafofAeLURt04cNzr70tVWNekrAn6Jss74jUccid5eN8/ve0mDu+X8+nr7ufh+bKf5NPEfHjd786Hiz5N8jjJw8vpvPtyPn1/fV5+vz3NJ+enb6cf8xd+LbgYiduM4vB7edMpxL8vPi/nj4fX2/NCtZjzCmh5G8CVereARJ23AdJJLEASSdoGJAUEA8gMAblRTgZQA4WwDSiVqgM0EhB0zdSrBWSKdRvQhJK1UISaAECjYgGpEQNAr5TFZilCl7pmycaQE7UGAd1SKSuXMKCugkaF0xiaJZ9WhgFbe6Fkg9ZKcweARCVaABODSnem3D2gIQvBp1UBEVjQStfmYwjAQqu+gUqhDtLaCuXs6xAQ+cpg/7XSbcjCFqCx51IG1NAYmo0hB+rIpU7JplX7IaI6RBKb1lSooEqL55ICEmqg7OuQKhUEqBSqDzoCqdQGYpclGezabFFXh4qDbr4OJUIuzS5ZCyWPAbDVot31tOo5Titb8tU4dGSrcLzqOKStSg0WD8ioRfuQrZsW7UCXlN7VpbV91NMteEAEI6upzFiABBLApZb9nI556PmmVNqgYxk2768O4Tplrz5p8QFCGyK5NIWhz1uFyJZMjSGZ6qoQHfdoSRSthZuw7m8b1zF79UlnN6hEin6fmScEsCCymtQqx8CCbmDR7QIM+apbYrdjsTCco8lLn2YBLX1MxWZV8nhz93zwOY0JtvSKeXNE+PvWnw7bMwwRvaZnDJf76fSTRKBEMiW3clMAvgsVO9gCVVDbTIHdcXQB0JkX/HHAzdXmHIZ39xvYDwMe3m1IykpR4Jag573ukmDe/9/t6MPz+vDvKvZyOB6Xm9zt//7qpq+Wa588/gE=);lineShape=1;strokeColor=default;" vertex="1" parent="1">
                    <mxGeometry x="708.265898485337" y="132.28303496842773" width="43.384665101339124" height="20.697865782723568" as="geometry"/>
                </mxCell>
                <mxCell id="28" value="" style="shape=stencil(7VjbbtswDP0avxKSSN2eu+4/CjRdgmVJkWa3vx89Q6lF22crMAwYsDfH4bFE8vCQ0sB3L/uH590Q3Mv1cv64+3p4vO4HfjeEcDjtd5fDVZ8Gvh/47ul82X24nD+fHqffzw+j5fj06fxl/MK3CeedI+dGWHDfp1eRJPx88X4CHA+nGaAWSrmz94mq2waU3P5uAC6UyzYgLVZIQhy3ASIUSgcoiXzeBgRPsd+SehX8NsAHSmIBhQHAk489oJIkEFYSsfYF2GdK3GfhNZGrgEjFLxYAWRBy1dpH8P1AMS8iVEGEWkpn9g7sx5H0Oa6ZPOCpRiP09okcCOiiDKpQBRxyrUpu9kwVUYiC8TdQFRRPWdh79H1lUM+IXMkBioruqM9wDo0j6wCmLBYggBKSbF2OAMQ5rfze6czkQJCio2h8kJb3dYBvSboBIjEC6I57XudEBdVZoNATKRdiEFbdkjdhrZRA5Ugl7p0uDm5JshWjogKIMi1W7hSQQfFIaLU4XwGElVV88sIHBCiN/bMoZQTIjTnzPAAucaJsyJegxusKtoAiXkHpbaghkN6i9DY+aD2gThhsrx0rDnEp2r7zq5pedPNRNVA9qLB660MCPmg9xGijhFqhVhwvSpRxibLRpQyVb9ySAVQKaEvOkk/pLaCbjGFdVBzSpTcDdMIofeJ0SAqAfD5bqay4pv/KkLSw/z8k/ekhCQ49//iQpMubhGljQxofWqOclRmiaIwtgLfDi6MMQqTyaU472ogC2JJuwHQRPYAhpwvb5ixtyS174zPDqa2IldObIK/bR0qpd6CNrlsHSDNGOjgflWplxbWRbF1VVIaSsUcioRw2E55rMrBuH+2Ah3uB1qCZjTzM73h2rca+gnypRnHPB4YHBbU3LV9gPN98pfAbAH14vcF4OhyP0wXI/H9746GvptsSvv8B);lineShape=1;strokeColor=default;" vertex="1" parent="1">
                    <mxGeometry x="735.1225836731489" y="135.11435679180363" width="25.259563484550256" height="42.33536224910992" as="geometry"/>
                </mxCell>
                <mxCell id="29" value="" style="shape=stencil(fZbdcgIhDIWfZm8zQAg/17Z9j85U606tdqz9e/tmZ0c0uJ47xP0I5JwEBl59bp8/1kNwn6fj4W39M76ctgM/DCGM++36OJ50NPDjwKvN4bh+PR6+9i/z74/n6ctp9H74nlb4nbmSKZeJCu5vngmZ6jzzNAO7cX8FVKEsBuBKrgKg9oAE8gkCbLeUhEoEQKSUDZDLeWYRKIl8MEDRmHwfyBrBG6Amyu4+kDxxMoB3jhwgYu7TVAsVkFcWCs4CTBEoF4RctKeOxHIf8IXYpikHikAIf+MNUW94AGSSaoAoFIE3AlOyeWU+p2E5S9yfQZcQILVuQOwZdJNoS9Ls3wA5u2XZTIHECqeJ9kDpSaauRiNVcAY1QhdBzeLBli5WazpkSsBLV25uRaqWRyFawTQzRRIQYirJzq5atkBqLfouwqUxLBepthWb10vrWZY6UOAeyKCCtDV625mm9gmUC4Wc3VLJMMIE1BsA2FW9JraVlQB7n3c9oMKhCLEvIM1zBPZ25/umNQ1tVEC2G+fFCC8g398O2hNQuQlVu752DBfA+q0ptnqO5JFmeuIuo9DY7KjY71UxdJV4EntifPWorW++R/dC4t7V3DlIB5cHx2bc7eb3yvX//QNFp+bHDT/+Aw==);lineShape=1;strokeColor=default;" vertex="1" parent="1">
                    <mxGeometry x="773.0849510530945" y="155.84414057314893" width="5.840674715144303" height="5.831545270447123" as="geometry"/>
                </mxCell>
                <mxCell id="30" value="" style="shape=stencil(rVfZctswDPwavWJIgudzmv5HZuLUnrp2xnF6/H2hqpRFUFo3M32TaawEYBcHB3542z+97gZn3q6X89fdj8PzdT/wp8G5w2m/uxyu8jTw48APL+fL7svl/H56nn6/Po2W49O38/fxDT8nnKHoR5Azv6YDzpTSn5PPk/3xcFrYJ4qpsXeZitu2t5mCbQBy4ss2gA2V1qNM0Wzb+0CutTeU47Z9tGSNsjfg/SmSZ+WPBf7nQqkN2DlKYRtQJB9tSr24CCKwZva4IqKcAJ+Ko9ICJCoGrOWeBKGZQVaFhdwASiGPaPDEXgMyiCEycRvDIg/rCEeu6E8gbYs0vNGAv+JaBxhKrTZGMgHXAuDQAhIFFIPpYohVLluA0KqpBAyYxTYDPEWgDQGUogF3eChKG0wxQ20Y9yFA0AUxumQhIHMXNGJasm67tCK5xurxkrg7ABV0qq1zC6Aa362TbAUdFNMib6RWr5v9WECIB6Gplfc/1KiO+k4bsF1ey72SK06nKeGi9l4TkVHvkxpVaYqUEXP9FwIlFLSpzXch14yIkCx1NWr/J+A2QOYJ4WEny6mOqHkGcW1V60OLtTQkDRYBHIVWfZ5rf153SZLYtg0Xa29bD5r17mAZF4TsIi3T8zaxvszkGuHNHk0slrHL2qEMAI71iBtPQPnI+1TTYCaDBnvd1mYSHFwQY23UC9ICeH+3aHhp9SAAX9eQhT0De/l60fYoQbLcue79oL1YvYr5edpt2Nvc5QfYm5X8I0VI8+rs0S7Z7Z6yraIdyXT8yg4ESsZoRXOhAErmoxeY+/bycLstvRyOx+mytfxf367kaLqZ8eNv);lineShape=1;strokeColor=default;" vertex="1" parent="1">
                    <mxGeometry x="30.23419623180007" y="230.88403862553105" width="48.791620849832356" height="49.252179569184165" as="geometry"/>
                </mxCell>
                <mxCell id="31" value="" style="shape=stencil(lVbLctswDPwaXTEgwQd4TtP/yEyc2lPXzjhOH39fqBopJmRtJzeKwhJYYEFikIe3/dPrboj8dr2cv+9+HZ6v+0G+DDEeTvvd5XC11SCPgzy8nC+7b5fz++l5+n59Gi3H1Y/zz/GE3xOuEOsIivxn2sgU2r+Nr5P58XC6MQ9KNXf2TMzb9qKUpbMPTAoAWeffM0CEOGwDqpKUnkElSduAVqj1HuyIkgHAOKQOoIEiCKk1KqEHJMoAEHjJ4oJQGj+Ri9oBWqCGWC8cF0CmCCrdKrEDVGoopEzcp8mCzCikSOq1gdXUeEWiUQQuLIs1ehJIHFop9mpqVjoQkhZK7AvBIE0GcB4+fG4BtOegQgV5UF85ZUoKAI2016t1RAAhjVpzgDLv3AckCskDFHlYZclCQmlt90ijtJpyRHxaBV0DjZrzYKSxB3VaYqoCAbwSH5K3ibm4lqtzord6tK56NKCQhHL1gAa0ZNKQVYtCtVodXItaKcHF9GlAZZ/WWuHVl9mnNedZLPdfuei1JOYBaMlezdrfGtEKh9JKqS+DMNRepdx6e3uyKqA8C/PmfAVVE2r9+RFXOVIqnm8FCQqz7hf7PFf9rr1dcP2FNHoEfFfvbTBVYfs+nlDgnMR+ZAhCAU0AlPqusTEJKS76eil8OBNJT7dAeX5yKPyvuS0+5s+Xw/E4ja+3//28alvTrCuPfwE=);lineShape=1;strokeColor=default;" vertex="1" parent="1">
                    <mxGeometry x="41.14633136333589" y="241.8548033744055" width="27.061101154088192" height="16.01511102799961" as="geometry"/>
                </mxCell>
                <mxCell id="32" value="" style="shape=stencil(7VjbbtswDP0avxKSqBufu+4/CjRdgmVJkWZb+/ejZ8ix6PkUA/YwYHtzHFIiec6haA1897J/eN4Nwb1cL+fPu++Hx+t+4A9DCIfTfnc5XPVp4PuB757Ol92ny/nr6XH6/fwwWo5PX87fxhVeJz/vyPvRK7i36U2lGn+++DjZHw+npb1QDZ29L1R424EDSewcQqQQth1iXTkkSnXbIUebQvCU0rZDSRR6B69Bgh2qp8idQ6QEUqiR2EREHq2f7Pq+pfRr+0wld/aOuAD7SsEZe+eAvVCu1h5gLN4i4CgCACRQNABQAKQTpuRMPRmtr/XvScqQo2pvSK0MAXipvfT1ySSAD2pfihEZIqjMCpnrowCggJi4J4RXyqKINGDpK6RvACWkWogzUwUc9W7mWPPQKGsGW0j7e3ZIlAU6GB1LIUZl0iRMSJUKAiJTTr2DSgPlkJpQbshhrY3Qid0CxuRJvE1CELsdlWjLlBE51sglEtRfNOJeD8pgjwTtVkCoonEO0itizAo5aMftkdMgE+Cr4pCNRmvLagtq02TUIaOQcoNpERJUdbU7yDttQGwbULKgg0odTEhahoDIJ40IC2o4rNFoqJGpoh1qg2lBb0ZcKuRN0tKOly3gUrUOgkLiFfkEN8vQjuOFQ0BtwzdcF0l7tIMKSGxZ0ZGiVKtGcbENEX/IodikdTBLADidelLfl7i0drs1VrnV7IkOiP9z2D84hyHl/3VzWJ0byewwL7H1KWJmHq0p4lDOVseMHfT7i3sRqCwFqEyLaFSms2QCDloTE9KIA9CNqraHTb9C0bTg7dnvtZsCFNxK9rkNAxv2rm9cPkFarOYpBTmC+J2VzVgxwGtnZaA0xfWxpz45wDlus9xNNejIj/YALxRBMZMNvlAAseti2Zijkb/ab4oCZ+Xfvg55114fbncvT4fjcbq6Wf5v72r01XTPw/c/AA==);lineShape=1;strokeColor=default;" vertex="1" parent="1">
                    <mxGeometry x="94.835107470803" y="226.5347894659053" width="35.277176610857026" height="31.707827137569637" as="geometry"/>
                </mxCell>
                <mxCell id="33" value="" style="shape=stencil(7VnLctswDPwaXzF8gCR4TtP/yEycxtM0zjjp6+8L1UNFgKzN9JhObrIMiASw2IWoXb56vr952u9SeH45Hb/ufx5uX+53+dMupcPj/f50eNGrXb7e5au742n/5XT8/nh7/v10M1lOV9+OP6Yn/Dr7NZI0OaXw+3wjN8r8987ns/3D4XFhz9SzsU+Zati2D1StfcxUoH2M1j5ShvYhGHuh3pF5tuFWanHbPFJgY85UgXmi6JJDDWxGM+FipVy3zQtFu/dAnLbNK0lx5gEkUkYZX80jwEEMlMTZSwb2caTiNTcB2efx9wxMqiA5at9tqQpVtH8tvM1mVOSA/MRObPOZ8yj3ZTBoNW2GShw5u+yQKNsVaqUEtqQObGOunRp2cFtqkXqDMXSLisYUQRnWHdMqzJKmVZxDowaypGXyMXQI7KnS7B0a2lKhkLxDB52m2MvROxQE1jhYZ3bQ9gN1iCve0ixlwESdku2eVqgU1P3skoppWjzTKZASCKB7WFSlF1Q0pdJmmTcN5dmChetn5WoGNdDuLTbk2GCVWWFRLQGEQbGX+ZoHI84EgDmsMgVLANptBfSCFilZBylQvUWBt3JIIOieVkASEqBpnVfNI1DVelkRgECR7W0gc9Ft0EF8HTQNCRSuzyw6O2iHw/ZcjyFlsM7mEpYBRMbksxmERV9XBUYraJpsXnuEAjcVwiq0Fr+jLWmpbY92VUSEjeRnBr1TAb41RJcljYERjSnvWvTpnQpoQ7Pu0CeNGBGfDO1YVBrOVUrFrtJvBu1aTnSIRmmN43mLhkggaC0Tr+QHpVWhkVY9ygh8dYwVyy0h8Onz1kHjBuK2SitiMtVw20DCY2TcchC3gmouSusc4gJ8BYmi+Bl3gjfquDokbdlAqHDVZ+kNB2XG6FQx4PeG2ihaSenzaL0li76DElQIZj951wiFN5cxi8zDQx7jxOWptQ/eWsz2CBv6ctHcChU7fIzqH6P6+xjVZejfjNQGz0jayN885TJUn5WWZJ270Wux7xwd7NH+38GJEwLox4nT/3riJD6bUWAAGl93J04JrqDV9DLGQ6c2JcCFXOHIPwHArSBjk1uaUawDh/EKuqkZziHBN1TVDDfXqdgjflDNyKvpQFDhsh9YJgfQZXHVlerACHphIG0RNMPjFDfAs1YScKh4Ds0dnhP861eBt+314vUTxN3h4eH8BWP5v/9kobfOnzvy9R8=);lineShape=1;strokeColor=default;" vertex="1" parent="1">
                    <mxGeometry x="156.5737102508781" y="217.20735699110708" width="37.71454952662978" height="28.70292270671854" as="geometry"/>
                </mxCell>
                <mxCell id="34" value="" style="shape=stencil(7VhJcttADHwNr6jZl7Pj/MNVliNVFMkly1l+n2aYoTkQ2b7kkkpulDjNAdCNJjiDv3vZPzzvBmderpfz5923w+N1P/gPg3OH0353OVxxNfj7wd89nS+7T5fz6+lx+v38MK4cr76cv45P+D7hQhbvRpQzP6Z/rBdrfv3zcQIcD6cFwBtJoQO4KN5vA5yTlDuAT1IDAUQxtQMgSFdISFlsD/BRatoGhKABLtGkQ5Rie0AQZwmgiCk9AGVw24BopCiAlcAAQYziAcxUAgDTVQNC3gYkI9lpQGYALyXoHCIDJIk3VSok6VQkJ81DIExn05SzYNqTKmUrRiVdJDCAkarkDR4iBfyW2gxwkkk/FNP6a+4H1/ZcB0DMfdKg0pEWra4VsQFykkTkXWvTZgNUBEla1Bojps8am2a+hZJrhS+Qutbcyj4D4AukrjU0k5gBs7zWAbYVZQZUySSkkpvRzeb6Vod1RNBcj6UmhS1Wc40kHJNfkaKISBJImXJut2cAvI8DnKqrlUL0ipAUoFSJpOfGjuhDQqUTayGvbQA9wvwbt3OvvhKp0UD/odwASNLVa98YQ2JNiremuUma7VC0vlFWViVITckVxFVix6P8lQ1AGoQ4hORVjybqruj5qgCF7wBXUf0ALbGOq2J7Ht7t0dgeuLQBpj4n9tZoCNW5tqIsrYyEhJbLfRKjWf5RAN5avfcVQ8WUnJ6AEryN7BBn6cyvOU51ALG9+jzkxYay/2PfPzT29fL++8Y+VMn0o8D4VUNGARBn+xwgeDZioYFSHxLUxYjzeI/3Wkq2uef62Af19znE0gS/CriZEkOiRFs9hyJEZjIISM1Xdu7x9Y/RollwNAGowPURoReILCAC1TyGjj7QQNbrDaOstAl1sZ5ZnpVs1PrA1gfNgKXDIfhU8TvqRnDU2K8PrVO3NJ17y+b8woDV6z83+9t6flXfALTtEb/+BLB0oF8/kGFd/P4JDi7ezn+eDsfjdHy0vK/Pi/DXdNbk738C);lineShape=1;strokeColor=default;" vertex="1" parent="1">
                    <mxGeometry x="201.55544740825349" y="213.37276242878158" width="21.0867994252537" height="32.863709057536994" as="geometry"/>
                </mxCell>
                <mxCell id="35" value="" style="shape=stencil(lVjLctswDPwaXzEkQBLkOU3/IzNxGk/TOOMkffx9oXqkGpC1mdxkGSsSwGIBcic3r493L/sdp9e30/H7/tfh/u1xJ192zIfnx/3p8GZPO7ndyc3D8bT/djq+P9+ff7/cTZbT04/jz+kLv8+4SoMnEKc/5xdFqKZ/b76e7Z8Ozxf2g0Z29nVQqdv2WSiJA6hSHwCQSZoDjERS4ApVHaB16sCF3KhX70MlBQDO0eky4ArcSEOUhAQ4LYk0pKFRQoCVD5bJBvJQmJJfgQtJBwAlLg4gTMLbgJqpeKfFyAISV5Vy9wCZA30V0DKxBzBTBU63Rtn7MCiDvGmm7oOUKCH7TtlzNVMDMe0yU3+xLzSAA33E6rEQFbDCsAj6EFWeg3YdMEiSr56BVxikvtwsakUhYHinVWD1TAAfVW3EgHkGaGFL/SMfsq+ebhoD8jDse35L3TKNtqTUAoApoyitCtpWQNVjgJyjDxBQqXpy65L7LUBeSTf0oawyXUhRHmr0QRmKkgGKp7cmYoFRSqvmUHFYe6gHxQ3RMp0jgIGKTVxaraAIsIjWhQ8DOW31UGKUtOGK8+SzEkXCl9MijAvCUoNrVAM3dBaSTWEKTiyf2Iqr+i1ZBTFaQecoXtRowoDMEYD6iZFJVkUNdcaa+IhOo5b4aYB1lO6dbgzZ1wtVr2SlwjnANlD9lqzrdlDUpu7VZ9raLqKGsbmFOUBmQd+cAzw1RKmACmqJunfa2ugAPlSL0iqsiEtF4yhQBxwFbC4PXLItVZAHm744JK7PmdmaKZun9xQGtALHYUNxz+Ieh1DLfUGDtFwRpgbYmkc8z9gKGUifHQbCmGvCU0Hisk0KPtMXYnidrrGAOh5nysqFNPfVq/Yp6l5dRGHDngPzBB4dzLtAPBMxEKFVazDe4f2HId3OPng/xbf0UuC0Z9EL9kwNNbf538U+z4PQdZJGQpQE1Uji0GOVquD7Ek+fZt+RtMRp2PZTkXbFA3fJsOw/e2Xwsb09/L+feDg8PZ2vNy7/j/cZ9up8FyK3fwE=);lineShape=1;strokeColor=default;" vertex="1" parent="1">
                    <mxGeometry x="236.8899573094252" y="206.63445118979712" width="78.82344009323305" height="26.444907534787774" as="geometry"/>
                </mxCell>
                <mxCell id="36" value="" style="shape=stencil(lVbLbhsxDPyavRIS9aLOafofAeLUi7p24Livvy/VrRxTu54it7XMkTicIaUpPLztn153E7u3y/n0dfdzfr7sp/BpYp6P+915vujXFB6n8PByOu++nE/fj8/L79enFtm+vp1+tB1+LTiuVEpDsfu9rEQK4e/C5yX+MB9v4nMkV018SOT9fUCNFMUAcqYUAaBQTQZQPAYoBZtSKZQcBIgzAAl9i7spWQ6iZyZIOrEB6Mq/Om8C2n72hCoUAAeJxNkCKlXAoUgv4g0gZwAIxAOHQgHokIXECld1CwGARGKFk9JX7pkv2xPEQx30hKFKJUFr5NJrcnVrhdZo3rQc2pkMAHnkkLknua00dyNcAZ4Y6CCrBmonoAYK5Hjk4IFwNVNdVwm3aCijDhEI550jN/SoSo2aWsYOamZCOan7wsquCOApWhKtIYDUkskPDVG7+NsAR9GmdFOHbTdFqn41N8D8Lo78QCL2afgBABj4kccbQt2UAUDNZAdTyJBzILFuDQzvBz8OPtYSgYZzxFY1PRE5b+VUL9B4bszf650K8uFxJKmJgMLaWNYRCcolVG023Ntiu5hM1drB9am/HX+9M97jkbiqVslDPOoxZVet2zyc1x997/w/Xj/eH1cv8+GwvM1u/x8fY7q0POTC4x8=);lineShape=1;strokeColor=default;" vertex="1" parent="1">
                    <mxGeometry x="327.22166147055486" y="204.97024893518562" width="12.41519299308905" height="11.306504726151303" as="geometry"/>
                </mxCell>
                <mxCell id="37" value="" style="shape=stencil(lVbLctswDPwaXTEgQQDkOU3/IzNxak1dO+M4ffx9oWqkGLSFtjeKWogL7ALiQA9v+6fX3ZDx7XI+fd39GJ8v+4E+DTmPx/3uPF5sNdDjQA8vp/Puy/n0fnyen1+fJuS0+nb6Pn3h5xxXEjScojL+mndqBW1/dj7PAYfxeBXAUIrDF4Gs2/gEyA5PCgW38QioDp8VVLbxGSQ5fKpAZRtfoXR4hEQBf4HqEyiAAX+ji+LwCFy38VaO1uNzwL/cJEAhH1ag7AUO+Qgt5V4LJKFgor3C5hEJMpCbihIvHLcoJe+JUhYX3s9Z+hpxBoyKqouH1wArW+AKEtDuhAbKgS0YKvUBEaXEoB0lhhw0pgI3X6QKNRA6Q+p8jVCC7+Nis1U1hBbgE1D1tlh37qvc80nW2tFgIaieEMeDgoC9AsYn4E+lbxwMG61w3wcpdASXXjAJTS02qf3ktQpI1Jj3AjjIuBGQz4DthCCFpsuovTK1BJ3c2sJ4zfkvfw+8sZ0S5BQcYeOtm3cYNlqztvJZV1nqcD8AgXxnNlM6cHYtkPxIbQIY5KDaJ21Z1SBA2jIaPv5qsVvNHMVHmDYcSGd2Ra/1pH7gJpup3QAwf2k0hP/3KvIPAbb4uPm8jIfDfHG6ft/flGxrvmXR428=);lineShape=1;strokeColor=default;" vertex="1" parent="1">
                    <mxGeometry x="305.6472650724768" y="186.1982637637385" width="7.545900115946296" height="8.497537847537302" as="geometry"/>
                </mxCell>
                <mxCell id="38" value="" style="shape=stencil(lVfLctswDPwaXTEkwBfOafofmYlTe+raGcdpm78PVI1sE5K3k5seXImLXSzJQR7etk+vm4HD2/l0/Ln5s3s+bwf5NjDvDtvNaXe2q0EeB3l4OZ42P07H98PzdP/6NI4cr34df49f+DvhuJDGEcXhY3oSmYr+e/J9Aux3h1tAoMA9IFGt9wH2uqQOwEKR7wOUtB8vjUJA40M/PieSCCbEFHtADSQFUq65A7Q4P1kFiFFuPaBQAZSzUJYe0CiDolYmcYA6s1oFjBPQHpCIBVQ1U1BPOjYAKJR4AUA6V6rBA5D1tFF1U2JqgLQq5eZJJ0TavFe9cII4LMxqwjHioJT6KWmAwhnp0ptP4+yue2XNvQ7K0K0mHPdeUsHWSNTUAwKaklApfkqCWpoXgECKyspzRFx0UGI0pbjo6UqCdIikzt6ZBE8p98naBIaAVSn1pM3ejADJW8MaCHLIpM0DAogZ8xIvQgA2UFvhkJDSOkfvTZUaCGMDOPOZDgWtPyEsvFGp4BTw8W1BgjqokTq7RmKwBFldnZnMLQn3aOmDydwCY+OrAKtJdSmQoTcq+w6yMqCWs0Uu9H+4kWZ9HWW/Qtgv0JIS8+zOGyEicFPy1qi2mQE/WFjJSAngbN3Sq2CU0HpiO52+pvGShOvfN9V6q0a4b+Dsl58ARbbtoduYYMW4zo1yHY+C3gjn4MYr2orpvLW78lXQyiubSegHCT6OEqynjXf1KRSRo8Pc5hfDwSiy8dEFBfy+vc694aL9ESSRCdBcQeNskXsKLw8MjCT78gnj/wC7uB5oXnb7/XQeun3vD0D2aDo8yeMn);lineShape=1;strokeColor=default;" vertex="1" parent="1">
                    <mxGeometry x="354.1317420885721" y="200.33062067468427" width="44.35541155639527" height="30.087844223620834" as="geometry"/>
                </mxCell>
                <mxCell id="39" value="" style="shape=stencil(lVbbbsIwDP2avlqJnYv9zLb/QAJGNQYI2O3vl6oq4LS14C1tchL72OckDS3O2+Vx3aA7X06Hj/VPu7psG3ppENv9dn1qL2XU0GtDi83htH4/Hb72q/77uOxWdqPPw3e3w2+P886Bcx0M3V//K2bA/s9bj9i1+zuEZAikANkBiwEoJ3gFYAIf5gGZIeqQBCHxPCAF8KgB1y0mAYGBkgLc8TCJIARmfUQGh/MAL0A6CRbgbNAELmharztMRwReB5QSBD+/HoE0RxEhJoPUYXZYT2L2hY8QNAAzZIMhZHA6g44zMqpWUtaU+gBihBQZJD4DyASSRyEZrcqFJR4lbeQghSUe0WqUTQSyVk9XN6uPGFgn3TWGUYciLtEhdZ1nhMQ41PXB1k4y6P1B8USC9KQ+81DYBy2g6CdWnlFMxkjC45SNWe0KUUY+aRxQ9te+WozYG746td4S6Mjow7V5Z9aL3p8isJlv1trBCMkyDF87pE+DhUwn7Oo2Kvo21pOrIyo1txLAWswOglGAGOo7we7RokOpHHIwtLl7sPK7ZF6DnIfpK6EEIZpmVN2bt6aaLtn4tUAeRCm5DG6PjU272/Vvlfv5+nFSfvUPG3r9Bw==);lineShape=1;strokeColor=default;" vertex="1" parent="1">
                    <mxGeometry x="423.21191115920965" y="265.96660646453586" width="4.9750521656417845" height="5.685493766433751" as="geometry"/>
                </mxCell>
                <mxCell id="40" value="" style="shape=stencil(7VrLbhw3EPyavTb4JvvsOP9hwHK0iCIZsvL6+xSz4GjY3KmFDwECY2+rVfWS/aoucuYUP3x7/PT14RTct7fXl18f/jx/fns8xZ9OIZyfHx9ez2/4dIofT/HDl5fXh19eX35//nz5++unjuyffnv5o//CXxe7JKV2o+D+vnxRqmj695ufL/in8/MO76XFGV+keIb3C97pMd5JNvvJksjvO/E64xPdjxPnZnyUSvwFPsz4IC0zfMgz3otSf238vQQaz1BmPCJWGF6bxbt6jId3c3yySm3H+CilWHwh/ibJweJbOMZnidHu3zN/w0jntkARTxzAjtycsYyKIB7EtrjgpDriQhQ/bylVyWQFtGCeg5qSVOJ01bGBzSBIJFXamqS5bRLKiLSBIs+zD1FpnWoebbIZgFgiMSijbnYGjVSqVpsHZMaRUtIm0VmDyFZootUaKMm0qg0ropRJ8cGgJZsHtiXvFgJLoATmtYrOiUBtMAaGQfXWQPkKYeaYtLHCUVyLMUjjJ45SrWtDsHKtgyQ2gzzidr0hqi3X3kGs5ZodVL02yJbQ1GYyxCiZ0UaRNNdGKBIYtTapc0P4Kon4gCCasMIF0tOIYTbVegsfg8GzygM+mPaRQCgD+DTvP0giEQW+mQBJYb9fRgkMvBuEcB1fxUWDp/GvY9C84z3bD/omGDwr6gQ6yhZP2gxzLCSDZ1MEeLV4Osu9ZG/in0jLAK+zv4GO8nfpsf2+owZd+80bulGhEK9GHoGv2ZAq4H+jLsA0jFdQwjOv4BumLmq2gqfBK5K1utC1Qr8QHxqoc24DqIHIyLRcMaiEKGDQZqc1SSKdALpOc+KgNyLJNAzK3JrQG4kppGprtesNUqwwMDoSYy4zH8AuZgUdfHmUB0NHXT6wFZJdYScfrltEO6T6Eixz4YoTbEg1PwTRLkyJGxj1jETcMHBrqpnTEFCm+rZTx5GBOQSjXCPbUpBiwhrpKQl5WA1oWJNlsm7AynWhDRjQ+i52+MBpdhJDQ5ijKsLqeAeVmVyRODav2naM2pUG4/u+JeN0o+IZTtsVlA6IHlZnDRh9t+UCpgt25kNcoqRUnn+3QY322NOrlZBAdaO/thGUKbmWhe/7miRKfVDPHZebNDao3Tgw7/S8Z2q7DjG+U9uOiZ+lRT2fu10tzQ1U6ci6q+272r6ptkk9/Odq2w0h+17PjsSzX4MZdR6H1j2S80Zs94ogGS66eFD5NZhbLqkCnzi6GGTKEj/KNVixBvdrsB/xGky3EbMzoEcMtXIeNJ5vtJyZUo22XGlWUYF4CuPJZO/NMhfbcaENiAFPmDXkIYeGAeQGG20+2dtzCBrWEG15ypPpju5P5e5P5aaS/p89lau2w4rnZxbLKsgvqzcd2n5XP+yoqVbKFv7MT+3tUa9nxqMLQWR6n6X2AIV+ZFoch1Bv8UwZtcXfSuuzjura8FxT1KUfG72uKGNW7/Bs3md73Vc2hjyo5+97q+E2Hh/eX6H4cn56uryBsf+/feUCX11e14gf/wE=);lineShape=1;strokeColor=default;" vertex="1" parent="1">
                    <mxGeometry x="42.00198420627055" y="313.34092514484416" width="59.53729924162275" height="57.99748164066884" as="geometry"/>
                </mxCell>
                <mxCell id="41" value="" style="shape=stencil(lZZNbttADIVPoy3BGc7vOk3vESBOLdS1A8dpm9uHhjCuSNuvyE6R+WVE8j1yJnl42z69bqbIb6fj4efmz/x82k7ybYpx3m83x/mkT5M8TvLwcjhufhwP7/vn5e/Xp3Pk+enX4ff5P/xdOOmUwpmK/LG8KRSWF9+X+N28X8XnSr2a+Fip5vtATRQskJkk3gdapcYGqEyR7wO9E4sBWqFc7gOBmdge0To1QPRGzVapCwWQdc+UuwUKcQUAUykWaLhMaeR4ATqVBhqhnQse6AgIlKIHItBGyVTdJ1VKCQCBsjshwT7kTsGdEKiCE3LzSbdGCYipsFdfy1B9JVFJFoiUQKdVzWyTbkypA6CQNGsINS1oXBPi7IEsAOgkyX9SQfJOXt6adAVqVTHH5MuagZbO2nRVanDOKJDsCT0SgyqpIZsdTGragIaA9vVK3gUAOoaKbVy/FPo2wBRsDqtRdVsbcuUgbTXIutRR9tWcCUAbJQ6DrcpUgVzVozX6RjSgja8D7FeKWgTpW6p3kK4xpI0YxpAYgOShltsrhapdQSFBT+tGsx8UIly7VwtLZz1ImL15KgWU7tgDIzwN/rYkiK0P4rgT3PYNdTsrtLjAyFq5bGvJcIkENb6PR5bR5JwYGNpevz9EF99Bq0RIfHnQ1pQyVt5Fa3Atf/XG9v94ffh3PXyZd7vldrn+3V8n9dVyFZXHTw==);lineShape=1;strokeColor=default;" vertex="1" parent="1">
                    <mxGeometry x="150.9292417419805" y="323.67791643949477" width="11.281075741519544" height="22.551606108280424" as="geometry"/>
                </mxCell>
                <mxCell id="42" value="" style="shape=stencil(lVZJchsxDHzNXLsIgOvZdv7hKsvRlBXJJSvb7wNlQlugRqj4NguabADdICe5e9s+vm4mDm+n4+Fl83N+Om0nuZ+Y5/12c5xP+jTJwyR3z4fj5uvx8H3/tLy/Pp4jz0/fDj/OK/xacELIckZx+L18qRmB/375sgB28/4CEBCTiacGkdvxEZxtPIPq7XgiREsog9rteCYw2Q3QnPWFkSyhgBAc/hFCQ/y/CqzGpwS2/AXs8MkRZPlUsMOnhF6+93wjslOgwsi2Y8wIxQEQhC2gIXkp5BEgGdHRUKpjDpFQHUqxoNgcYoJ4XVbR2C7E3Pu+LqOIxFc7OH3QqlMacyiOEZRRGIvETpGudK1dkOgZM9j1dYXq8FEftFFH0alQRbF8KgI59LVlgyh6wdbpVGSrCfWZ50v9HUcfO+km7Y71mbrAsU3WOVSGOSROeXJFsnx00InvSx4AzZVo4dE1XECOgtYBTs9a6aP8PWcdRo4vW+ujpwOKIDkAClcyLQ3BcXJTBtZnVXXqAdTJw4nW3Imtv4NVRpOu9XWA1tVKQwvnnSEljjlo4cjxck6jWC8Kty7v0k+Niy2Sdy5fZ136pusAHSfW0Frp6lCShGrF0YIP+Oxd5D8A+vBx9Xmed7vl5nT5f7wq6aflmiUPfwA=);lineShape=1;strokeColor=default;" vertex="1" parent="1">
                    <mxGeometry x="135.0390187837719" y="302.68257182435093" width="6.918236325001459" height="10.781952902692211" as="geometry"/>
                </mxCell>
                <mxCell id="43" value="" style="shape=stencil(lVfJbhsxDP0aXwktFCWd0/Q/AsSpjbpx4Ljb35fuQBOTnnlGbvKYT9weF23yw/vu6W27SeH9fDp+3/7eP593m/xlk9L+dbc97c962uTHTX54OZ62307Hn6/P0++3p4vk5fTj+Otyw58JVynGCyiFv9OHSKX+//B1Ej/sX6/EY6HerDyTAEBiYqsgB0p5HZAj1WwAXKgwAAi1bgClUewAUKkWqyFTKesA5mHxAKROAjQUHkGcAUwBAESI2UYpUgZhrTd54/mKRUDTxFmnJVMHeeiJ2DpdNdARADSs1ofG1BIAtHHfDBDKyKROxWa6tWHkGqDbPPRAHfmgAOtDV2pgAFuTehlXrDktzqQ6jFwLaxEL6JAaXSi5Eg2BQgAIvglTpwroqkGpzqZGFdmUqDbvdQAlp4CYLICxSZGa8yFRQolIw4CZTB12MgWILYhWKSMfss+cFiEkEy9UENQgNz4wzrRafKOBG6Sr47f6UJFJMzmvoiRIQ/ftW2s0yDrgis1XqRZskzj2FYoo1c1PuX4n1dV3148r1jJXHb81DghQiIMHdBAmJVNkD0i4C3wOoN26Wx8uBQEafgujScwjhWFB1ETFaigd7gI604qNElcYpRIouzmaB+OXdwEZMZlNmjvPMiBTtl1AEsy0ricOoIMXrSe6ULkalQp7ZRKKlt6lQLbGTtFtTHHwdxkQR33NC1AbC8sywFMpyh15v7Yy7DLB8yIm6oDbwY+fGEabWpF3LamNCbl2vS01GbNlzXorzlBcg2MJhAkXb1Z6YrTR+1YXcMFQiE4cTShtzMGLA6KJdzXAUvnka+euuB4+HlYv+8Nhepdd/+8fYvppesTlx38=);lineShape=1;strokeColor=default;" vertex="1" parent="1">
                    <mxGeometry x="162.0808822818774" y="313.5958585355553" width="53.57342622224124" height="27.19925338088089" as="geometry"/>
                </mxCell>
                <mxCell id="44" value="" style="shape=stencil(lVZBctswDHyNrhgQIEHynKb/yEyc2lPXzjhum/y+VFXKIiVvJzeZxhLAYgFw0Ie3/dPrbhB+u17O33e/D8/X/aBfBpHDab+7HK7la9DHQR9ezpfdt8v55+l5+v36NFqOXz/Ov8Yb3ieccxTjiBL++HdC4v4efJ3sj4fTwl6EYmjsI5m/b6+xtxdPKdwHBCVrAd5TBh4skbkGYEqZ7wMSU+I2hUQp3wfkQM4aQHbECQAisfQAUwBIFNqks1BAHnL9ewYoJeDBMRO3WZe0xKCL2LkwikAaJYmsLSARo6zjKutMjAvRiXUMMgKAUsytum88bCMcJbdygWgq9/lVEiCmVPQaVzQBXlOslV0UwoA4CsA6+ZVSg0KUkLgTuNYe2QZkcp2Yil4xS9bl4GrbbgPKfdwDYM/5LQCqtJFfheQRIFVxLpIWgR2k3NOqSN951UEe67sAukobrHQBSNfUEddhLY2EQ7Ka4qIfAkrak7cekFGlZQMA5/dnAZHriqqApJW37aWVyLW0lq2kgCUvZC1LPteT7b1rvZaUSYAHp3UKzaMvUAKAuYFnkuB6cDW/mSJSsKWZQivUSALNuS2A1Y16z7wlx8OZzaRtqkoB7U5ybewCu1hqB95eVB7Erv1k5LoftqXW387kQDBGOXTmaCimulgWt4Pp4AqT0tlDJj/52vy/ffm4PW1fDsfj9DJe/t8/hcvR9IzWxz8=);lineShape=1;strokeColor=default;" vertex="1" parent="1">
                    <mxGeometry x="216.09272905171133" y="288.834827197463" width="30.104381823420994" height="41.354262429067035" as="geometry"/>
                </mxCell>
                <mxCell id="45" value="" style="shape=stencil(hVbLUuNADPwaX1UzmodGZ2D/gyrCxkVIqBD28fcrr8sGTeLmZgb1pKVuaTSku/f949tu4PB+OZ9edr/Hp8t+SPcD83jc787jxb6G9DCku+fTeffzfPo4Ps1/vz1OkdPX6+nXdMOfGSeUeQJx+DsfFKES/p/8mOMP4/FLPGcq4gA5k9RtQI6UPSBFKm0bUCq16gBRKeVtQMsUkwdQiCC+UfCMAgWQskZS6e7PBcQXyp5PIQZ81Pg0f38gRYSUavEA+Q6gvqRGKSukpOpFY2pANDXRsgcoMfqFROIB5qMAVNZVpBVQqQLjtUqBe0BDPmJi7ikVkINcVSmHxYq3AcbYK50SKaAkhYqnxHXRfgtQfVmteVBZRfoqxQi9JNpTKkt7bFW1de6GTjLZOmOY8EBm84WELl5QL2RKvhfMiUAzFUrRxTdqKN58340v6zWQQAxXzmYmRQNGl/mzphBwO8uV79astorUzeDMyxVbM5K7VrD2QzncBACj1tL7osbl5PY7Eoh9WSURA+WmEefLal5MIGkTtvpWsLkpoKzRdPUvwzSZgXD2EMRu0gf8WElvjYkSqFLuR5hNcgbtbBn4blAmATpHSj5je31RTcPy1K/xiTIo6VXv2FCOIN/Q8xFerL7F3+dbBY4vu83Xsya4T+X+ZS4Kx+mtfQ21/vf7nX18LofP4+Ew75Zf/98vk3Y0L6Lp4R8=);lineShape=1;strokeColor=default;" vertex="1" parent="1">
                    <mxGeometry x="211.9710289060065" y="307.04343710111607" width="21.95369054772158" height="11.467543528046491" as="geometry"/>
                </mxCell>
                <mxCell id="46" value="" style="shape=stencil(7VjLbhsxDPwaXwmJlCjpnLb/ESBOYzSNgyR9/X25dbVecb0TBOilQG6OzYlEcjikuJOr57vrx/2Ow/PL0/HL/sfh5uVuJx92zIeHu/3T4cU+7eTjTq5uj0/7z0/Hbw83p78fryfL6dPX4/fpP/w84YQaTyAOv05f5EIp/Pnm08n+/vCwsG+kOtorVd22j4lqGAGZlLcBHCi0ESCkGQASNRkBgTI4QQLF0eckVBMARCorH2IBgEwyRqkwtQoAlWoZANXCAE5I6n2oiQLwIUfSNF7JEg1OMBdTHgAqJIAZE3FGgCWuAGrk1pmzyEMDidNEZaSGJJK4DbCoZwcwasg2wKKuxZ/wl46XAYXY+cDEqH4isSNfowYSZ4DkKjRQQycwhTgCmBIgnwHEVVwixoDsTjA6gihdOKFSfMUH53TDTq+ipBE7HXw9KEO21kZldFqxLtVKOjpt/I2ArcYlzW8CKKm86UrZC9lrTiffHqawonoQik4EjCwgcQaQMQ+mhQ1dybS1DgBrABkVEPeSnwFUgQY0oTyWdKSImGQdbiRGIAZZa9p7x9k+oPuUHvGzvYIAtepZwfj/t14ocwaooWKe9WrmBAkg3WQ/xrPCicHs80ihaJqJElypjBeK0lV5K6I6stqmlILUxTx0AOuOKMfJ+2wAAa3NSKfVXymhrLHPcmQ4xJhCtrH2Y6CCrhR986zEiBfRC2Tu7XrLA9c6BSqFhSi6EOE6SF4oQh9QLtvnHo5FXaL7lD6hne0F1yX7+0N/W2f9OT4w/q3L2jn+SBdjmP07JzggQlgHdJQLuMc2Cq6SuXfdfwSQPsPOWlfhRLgeLKThE97Hr/fx6/8Zv7g/3hdcQl2hiH+e28sSqZgWP+1YPVRADc2rttDg89yCmMeaLgHqklpBjomzZ1xGT1tT7lGJjY4JnJBXrdDEH5Voyr63LdR2awNQ1B8BlxKWageI8AQufilhYUog1dZv3FxlyUdTjw2a0aV6nu63Tsgjv1OATpsPriBEei4vR0l8053iBnyQ4rXSMhMBN+xnGdmXClRjYT9vG4ErAJjTbuemeP1kg4Vr1GrsAlGy4dQVtZVcBSdY43eNujDeV/WuvLBHixjxA3eZe9hll0mcZkT4yIv+TTg5DGoh+NlKW38lbtiLsy9wAbiKpyoxuP9qdLNehWgdOiUXnQdtYa09u25rIosI0W+7FHlUyKsBo1KC9u7NaRpeUBm/ca39ur19OO/Qbw/396cV/PJ3v3O3r077evn4Gw==);lineShape=1;strokeColor=default;" vertex="1" parent="1">
                    <mxGeometry x="240.55010341718526" y="281.51630007960773" width="65.67277097595792" height="35.763593013211334" as="geometry"/>
                </mxCell>
                <mxCell id="47" value="" style="shape=stencil(7VrJbhw3EP2auRLcimSdHec/DFiOBlEkQ1YS++9TzITj5mP3G/jmAHPTUq9Zy6uN3af07svjh88Pp+i/vL2+/P7w9/nj2+Mp/XKK8fz8+PB6frOfTun9Kb379PL68Nvry5/PHy+/f/7QJftPf7z81Z/w9YIL4mrqqOi/Xf5SvGv537/8egE8nZ+3AO8kzoDqlACKK36Sr8X5eCyfXa6TfMsuVSYvYZLX4Hw6lhfny6yPukKeLy4r6l8Kk6+z/lVcEuafAM/PLgYmDwGrySXiz+oS2BtdJfJteG8jn4n+bTxtIy/E/+pSQ3klz1enFe0tSgmaCzq0egpoYIE4JR4KYXFRdZGpZACwudEYmEo629C8CzwrQ0MvVcLqEAeJNyo1ZkMe/76qlFxjbm1odKuuEWJH443MAHWRMMmoDYEzwH9u2AWk5MIcuGaRJjak5kLFOHgShxwGlzfsbkSlbOVodmvJo+DsAyz/58BJpdQwgMw2ZHWNJNx6Qja2shOq83BCdZWdULGm2pmsBhhAF0Bibm1OMgI8AxhzwgIgZd4AkEBdJZLT4pFLBmiskXjsnOaGwjqbVY2Z3t0NhEsSBnM21GC11QBxzjg7k9pgJwBbI00ge16c4yDqMklRO0HmE0qhdUmyUyiVmbq1D0RQNfxg1z7AKh8UskBtMAV0mQEyYaspAEOSKVmISjZDYYrG0Sb3AYK1NSY+NhSkho7B7Ejez4G2ts6fD4XSxhj+/DhbHChTTR4qRhjN4kge+qEf7Wtf3uYwD/KBNGiTrxnkPeFQazgB+MHCI/kSQD4xexty1NNubq04BfAnJZyi/6OLTP/r1P6dP6wNmnyFajpSYn/sDDiXm0LMoZqQcNkYQZJYBcu1NNr6tWGPqrwQqdkMpa7SIOs6bJtKNwBwgo6udQTAmc2PheYIALOCFdPC3Ko4nbc4VqAjt+IJkS4MWjFwBmArpAGyR0BkKhWMgxlNl6qC08iNHmUAgR2G99kOWHYYNp3rtQ1vyBdYAlUckGzTjizSddlhhPYEizT0qCq3Mm5d5guzQYfGGxtYmTdAWVKU1fmecRHjwOpS8NfGsQk1u2HoOQoJ4ekVTDcCkjq4xPxqCiwJQd3U0E095Rj7rFZGBLD5xcgEa5IBMssgo6tHo9ngaQlRBd3KVu4fB8jO3Y0yQNy5/WM9y7qowsZwo03XkZGbOZLVmftceJ8Lf+a5sOszyyu9QupXUrN8FHo/bQGOsMULZ0TCSbUI7Zv9AnvZT+mVc8M78x5FtsXrcm/WaAexLb4uAw9Ls37ntMzCmdiQBTuzKckS535vNgD3e7P/wb1ZQGoI75umACwA5UbGtbGyXAFKX4TlvIznOoayfYB3cXZrb46E3imj0cqv8taXW3rjFYPVpfmEzTi9P27LaJfXI9ooVQfz+aDOFRAHW/bLNy71LdNyf3+BeX+BCYCf7wWmjvvuzcAgbCzE9q98SJJBsW3is615tPqr/DXtduWXHbvPicSjHqfUvmKzUodTpxVf1kDq+O9msWNFJUSsKsLn7JDQo9aC2CsIA2hAQGKFMeOXJr2NMpYK7vz95RAJmgHK0mXZFVUo+ALZAMpOKMhryfTrFwPAviwy7koOAdD4C12owlJ/pdIbWANgHBovLwVXTlHupR/+COk2wH74/s3Tp/PT0+WTqe3/8Rsp+9Pl+6r0/h8=);lineShape=1;strokeColor=default;" vertex="1" parent="1">
                    <mxGeometry x="327.8343830622089" y="254.04324859051383" width="99.36506222678517" height="47.67288012638872" as="geometry"/>
                </mxCell>
                <mxCell id="48" value="" style="shape=stencil(lVfLbhsxDPyavRISJYrSOU3/I0Cc2qhrB47Tx9+X24XcFW1PkNt6zRFfM6R2Sg9v26fXzcTh7Xw6ft/82j2ft1P6MjHvDtvNaXe2pyk9Tunh5XjafDsd3w/Py+/Xp9lyfvpx/Dmf8HvBMbU0gzj8WV5IoVT/vfm62O93h5V9zFTiAMhCtd0HcKU0ekipH3ETkFM/rwNipVzuA0Q9QHpSN+1LI5XBPlAI9+1rIMljBpQE2DdvHxsVvg9oQqJjTRM1UKLWqI0eqhCDrs2AMWULMoGaGkDCAGiJOANApTKG1AoJSlopjyHZERV5KBQcwLJSALiiqgEUUHVOsfiQEsqBKbqkhRQ1LnZxXQBMDLhqgDCGVCsxIJ8BeGxczRRR0rHX5AIIlFFZmXTMQRUDsm+cGuFR0kLZechUEaB0uaw8ZFSl6qtkOcBON+Loq8RYQHUcezV1Dd4erOEyhVatRnNpZrPTKGNA7XpZ0fUDjVYHqJhMpTd2LTkkaqHghn3A09hEWqqPCRXWiuLYZFEWrAgZYzKfaAEZIDpyNLjiPg0wJrhxbGsaac5E77iRTKQgaW2+EZxhHzT0ab3acorWbvBjwDwUkEMuVzcHhR5SIB2HpZjm0GVG+yztgKIk6Krhbw5WNiSg3ONdTY2IMvDcNvsA5MO9gKt40JaOvkA29tBGjH4k2VxV0DLbHGO+aisVnB886YxVAkh3NSLnfsF44phvMcqBWRF69y/2EV4lTcdjv6RB/thp7qaqUAKfvZ1/bG8P/z8FXnb7/fIlsf7ffzrYq+WzIz3+BQ==);lineShape=1;strokeColor=default;" vertex="1" parent="1">
                    <mxGeometry x="404.84724859037124" y="265.283210420817" width="49.615676947519916" height="17.61121062214542" as="geometry"/>
                </mxCell>
                <mxCell id="49" value="" style="shape=stencil(lVbbchsxCP2afWUkgSR4TtP/yEyceieunXHcXP6+bHfWNdhL2jftCiQOB44Y8O51+/CyGUp6PR0Pz5v38fG0HfDbUMq4326O40lXA94PePd0OG5+HA+/9o/z98vDZDmtfh7ephM+Zj8skPPkVdLn/IcJGv7583122I37Cwe1r8ZeT2Bat0+QkrEvFVJZt8/QxNjnDrmt23dINp6sN/bg/Aq1GAcCkgBvg2IBZEh53R47iAVwzsBNexJo5M6vAd4qIBbwGdBN+9aBLcE5AwUJ6gUIrQMDBwg6AjqKG/QgpJ4AXQ0pBxEGBO6WMyWBgyQRVHsDtZA1UgzuBoYegEZNInsHrkEdJd84GhIFRGsdewwZekAc+s7BCiWo7LTsnmnr0ILzE3RXSAI9UAoCdp1cwnh0m+wFDXKgLCpFZDnLIFFn0iI8F50ZMEYVuDn7HnWmVr3tZFxa9XZVXymRAAbx9+wJy6pNwQX/7SDsxbQxYNBnOV3Ju6oBBySLypcF3SXUO7nSL64hbYLeQTTIoI6YIVvBE4ISOWT/ZmqQFDGHyxN2dpBFb26XBvlSusj0WvEh+StKkFeVK6oeRIkeKn2XXJq0voM0qfyI7U+WUGCmWcQW0xezyD8ML7r4O/o8jbvdPDld7vtRSX/NYxbe/wY=);lineShape=1;strokeColor=default;" vertex="1" parent="1">
                    <mxGeometry x="433.7243896865202" y="246.7933989457573" width="6.954115018230169" height="10.40011977929396" as="geometry"/>
                </mxCell>
                <mxCell id="50" value="" style="shape=stencil(rVfbjloxDPwaXi0nTpzkebv9j5WWLagUViy9/X19ehQghjOoUt/OZSaJ7fElK3n62Ly8r1eRP07Hw9f1z+3rabOST6sYt/vN+rg92dNKnlfy9HY4rr8cD9/3r/P7+8uEnJ6+HX5MK/yaeZUCT6TIv+cPoVHSv18+z/jddn+Fj0LaBoIkamGZILX/7oTMpHGZkBNxHAhaKLdlgiqVNBBqpCLLhJKo5IHQmCLYodR+4k4oDdpQA5U62hAoZkBIN25tFEAcaqGqPnBSlglmYhltSCTA5hZIRq9GUmBBi33784GgxU2ojLrgvuF9fKbo8cwAr95ei3EF+Epc3fkDOn/rvy/+ySAPDF+D838EEgp8tu+sIQp4AyehQg0JwhJTxiwgResXr+nAXYNLEfCKCDCRW6KaPKEAH5mGRD0hIhFF4uZtiEhFwUe5UkF4q22jCQqr44R31ZEY4YNXqTw6f3MGkyJRSPffJWsyyprU3XGVlSgASlEcPqAIF1J1+IrsrV5CEfuz+XgJLOyGd/7MlJA/LetH/ZQu2f+DV9LR/xbghBwkVEcD0oMstvXGE6n0Pe93pkpplLQ1N5TF1q15jIFFEdWJwtRcnWDcDPSGYYknQNep+jwoGSaO3CROtn4MhpBg1dn14wcNgZrrN7jhB1/qrHQJWJ99nE16DAxgX4ksFVDUbtqZNUCGeNfvpwEExJh9JZoGEOjP5CoF98Hz/uTbx6WrgYuBhISSw9fu4fuSI60eH0B8s09kw6OBy6KpHq/A//96M3iMt4fLNeRtu9vNt5jr//7aYp/mK488/wE=);lineShape=1;strokeColor=default;" vertex="1" parent="1">
                    <mxGeometry x="464.9974327324762" y="253.17921345042782" width="39.85833205559629" height="32.029773561737045" as="geometry"/>
                </mxCell>
                <mxCell id="51" value="" style="shape=stencil(rVfZbhsxDPyafSUk6qKe0/Q/AsSpjbpx4LjX35fCQvGKuztFgb7toZHEmSEpTeHh/fj0dpjYvd+ul6+Hn6fn23EKnybm0+vxcD3d9GkKj1N4eLlcD1+ul++vz/P721Mb2Z6+XX60GX7NOB+o5IZi93v+whTnD5/n8efT62K8/nZlGO89uboPCEw+jIBMJe4DYqQ8AthRBltKkaqzAAaAkG3M+qW9ghiiDICU+hTbgEJlBJRAgmJgCnEASKKY9gHFUx51kEqh7ANqoDrSKqUTvQ1IXaYFoKAVCkU/AoQiULqK1UFjSAIAtRuhA6rvdtwEeOfIjd6oDN2nS5Q0AiJFRJNQHWlS4iqQWmnKZoVCHgEyObaACuyqO2YDEPLATMpJDHYFQUE7EhNDpgqqgAprkrrZywOA0uqtDigGBZQxIVpUCFCJzQqOCohBf/u6SjkknOboKiEYrRAojMK1lHMwR/0qR1GtVJlE7Jag+aSHuAgaAipFtrQmZL5K1XhJWwauAqbeK2+CAWyskXpB3wva9KzGG3Cr/k6jNTSBCkqg2PNrmaL/E5BVJtOo78Vwr/Eab7RCAuzKySpXpJeq7XIsncWPPqrKgfrN2rTGIFi6vbYbr6y6XFdmu+9KrxGL4w9wRnEr78Gjho43ETfSgJNSthEHlQWdr2o32gJQQYdTTqPhFHddr7YZfcG+l51tgO2InmHpdtZ3umIGG3Kr9gZdtzoCFCiZzj7uPlECWeN6K/6gv7fGbfbJGT9QQOraxuyJQdJrOxhnd/1Itl0jbP7iAqHZG+1wMPtdxcVuADXqkpBssMiX/3h1+ft4fbjfk15O5/N8zVr+t/cq/TTfycLjHw==);lineShape=1;strokeColor=default;" vertex="1" parent="1">
                    <mxGeometry x="519.5999563508622" y="242.36565600362655" width="30.579717319669726" height="32.64367257722057" as="geometry"/>
                </mxCell>
                <mxCell id="52" value="" style="shape=stencil(lVfbbtswDP0avxLUjZKeu+4/CjRdgmVNkWa3vx8FQ65Fx2cbkAfb4hFFHuqQmcLD+/Hp7TB5fr9dL18PP0/Pt+MUPk3en16Ph+vppk9TeJzCw8vlevhyvXx/fZ7f356aZXv6dvnRdvg143yhEBvK8+/5S6D2pr/Ps/359Lqyj0zsBnvnqJZ9QGLKYQCoh8T7AFEPMp4oUXUAUMjXARAzBRBDTn25A5J6CPuAEknSABChDI5UPaUx6Cwwhhr6fh1QlZgEjlQoj0HX2n3eByy8LsSxZhoQkTOlYl1kBPAUsw1CMmQumqgzMWBOEpWxWmvEtZH6fgvA96juA4TYeGDygAjZEKHUOOBBs1THtBahVAFg2W8BJJIIqTZZUkAEaS2VQraACojTrNsjZfKg+pTXbACVGKS1lZqpb0de9gGral4QgQRE3W6YqW8tL0CELrtNuRbkga0MaFgelGvZeqhQmXKluPGAYsiReHOpGQCk9iSughZwJL1Bydm0CrpBqR9gRVwAVCsgGaZd70r3Abnr1uqOFpRWR3EUfK1vBkf6b0BStTZXjikCcU2xZ31pKUwBEKdN0DTe5hMBnL0PrXcD4oIq2Uhc0GIBQWvndyMPOn4w4MEF2yBcgbLhqJgORB5oMdtSzR2/Y24URrpu7pgbVY1UkIJ1dj4msQhUXsXN5BK2HemJWDJJDumvbeUMO4jblAJjYqV3sJU9qH5ddnb/APZvuUsmXKQQLT1mOuoB3bdfprN/G5v/Pmbrw8eM/nI6n+cRf71uZ3r9NP8fCI9/AA==);lineShape=1;strokeColor=default;" vertex="1" parent="1">
                    <mxGeometry x="66.9268304645235" y="409.6895550523483" width="17.034112444960954" height="40.97515244829765" as="geometry"/>
                </mxCell>
                <mxCell id="53" value="" style="shape=stencil(3VjLbttADPwaXYnd5XIf5zT9jwBxaqOuHThum/x9qQpSTdqe1JcU6E2WOVo+hkNKA9+9rB+eV0MKL8fD/uvq5+bxuB7405DSZrdeHTZHvRr4fuC7p/1h9eWw/757nH4/P4yW49W3/Y/xCa8TLkdqaUSl8Dbd6YV6/n3n8wTYbnYngCQk3QMCXwfETD1YQKcuABCpWpdiCBTCdUSj4mJo1IBLQi34ECRdt2fKzp4pAX8iSTX2rVOo1+0D5WjtM3FB9sH6UzsxqFmYn7bY6/NBvJGytS+dpKH8pGzthbij/Bfrf0nv1NflRzqVCBmULUelwYSmSsUCciIBDMqFqg15JCEIuWgXsCW13gExtEjRkkhzBGrQhJJNUqAIaqyUzNnZM/BHKe+KkKiADGlLVWtfqIGu15btzSYowaY8EYUFoW2GjlDWiA1BqCJA9T5xpA586kLRnsAFA85aLQdKIK2tzlVaAAvZLwN4psHJCQLEaNQSy1SusPtrmcVnAaR5qFwGZB+0cqOCGCr7EfIOufWE6qjBkEx1cWCRSCo4Sd3FTBFXodmkahGAYrdGwXcnUsiePPEi7k7x3anyAQSyNz9CogaA5KJTswfEAkkxLgWWp5pSlCJ1qTiB1EeAmqkiJUsKFsrIpUTVBs14zo6AegtgbB03qLSQoA46x6IbncpcUGh1oNgYxsECmPox65rthY9Y19C68C/WNZDR/3JdQ/7fvK4Vr6ZSKIKIs6pz9CegEHS/C8kDGuBQbnMbLkkK8wy6nNQ4c2wBMJzLqgzdLVSVEqCRZD8TaoR9I2dTU/UpAvlSgNgTWsCdzH7P1rWVESDNdT3pTUZZCr7SoyiDoHM9e58VzKXsRV7lCNH75lfsvwDoxZ83+qfNdjt9EDj9338B0FvT1wO+/wU=);lineShape=1;strokeColor=default;" vertex="1" parent="1">
                    <mxGeometry x="58.082933850166455" y="405.76619691139547" width="20.997547072939824" height="13.210709963295386" as="geometry"/>
                </mxCell>
                <mxCell id="54" value="" style="shape=stencil(lVbbbtswDP0avxKSqAv13HX/UaDpYixLijTd5e9Hw3NqMvEpBuTBds6RSJ5DSgM/vO2fXndDCm+X8+n77tf4fNkP/GVIaTzud+fxok8DPw788HI6776dT+/H5/n99WlCTk8/Tj+nFX7PvExBJlIKf+YPEml61d/XGX8Yjyt8ChSbITSmXLYJ3KgnQ6i6BG8TSqPAhpCZQt8maADF5pDqEuRdQo8UiyVgfKIaDT5QrQCfKXWHDwHgKwW/fkLrN59wpBwBXkiqwTMx0Lh3qjb+QgLWj+Ga39VFS8W2NmhWgKgZAE9oBt26LvLyZatELVtCoY5qqpaxOcdGCYmWKYsnFLRDonazA7RFJA4+h3/C3ydoY1VfpZy3CdIpu5ACCXCGEth1P3UQkeLFplDgdNEMnGyJBCSgNY2uRMs8u49nanYYaclQPGWp36qTse2C7/yOfe1MlD5rnGzrn6mj+vTF9B96VRS/4l09AxUckBt1ajk4S+Wmz8riqS1CuukCRGhCzRK4w8ascfHY1aQNtk1OxK6qhSo4A3XeOpnV6AJ8oZPEzketM+r86g/l1Ui+nwK15jcQUCNexvMKj2ROlBweD4p4g6/EQAJ1pdVYxzEDBYLvy2lywPX9gdahYHpgW8FEJYTri81XCjwAoz+RhakCfZOfu4KvOP97Dfwcrw8fd86X8XCYr6zr//0dVT/N91t+/As=);lineShape=1;strokeColor=default;" vertex="1" parent="1">
                    <mxGeometry x="76.16171421997717" y="450.08804113590986" width="35.91073118851995" height="21.750049016419126" as="geometry"/>
                </mxCell>
                <mxCell id="55" value="" style="shape=stencil(lZbLctswDEW/RlsMSZAguU7T/8hMnFpT1844Th9/X6gqbROSbiY7WcahAPDiMfDD2/7pdTcE93Y5n77vfo3Pl/3AX4YQxuN+dx4v+jTw48APL6fz7tv59H58nn+/Pk2W09OP08/phN8z54UiT1Rwf+Y3gZL/9+LrbH8Yj3f2LORjbx/I8TaQhELpgOgp120gJ6q1A8STlG2gOpLepZwpAJdqoRQ6oAgJALxz5FxH1ESSt4miMaYOuDtjlZBIuXeqMkUEBBLjE74JTWPoE6uZY/QFR7VPbCkUgTj0CynbxKYIACbfq69EqsilRLHPa2ESAUCxQZfQolqXnydOFigBALEl8c4lRoBQSTZoBgLPxUqjJCqohOoCyCQfAOama1PXpktGSx5KQ4OufdCq1grUqmk1jalGcugL6kCxABSfijlY4L+6tsRn5K0lmpH4mEKwQSdcomIAh+thWaKVHApam4ARXyaPgg6LZplwE4gk3srbgXqQTGwAbQvoprVtma4R8EjhRU0zOQQIuWyBCvr9p4Gpzxl5O0pAS1pxxWRJxYIujlvbus5RnfXApcitXK6TWtooXgV08sc+6JDbKF6foxSNWGHvdvb4TBGamxl9XVW2zHtNRCqg0pxVtU5nkBvfIrutVWgmLOagbxJfvyorHtUOGCDSpHgz92g/ss7gzcVrS1kcj1LDS/uMzk9trbklB6b+kyvtx/b6cNufX8bDYV6/7/+3+7a+mnd1fvwL);lineShape=1;strokeColor=default;" vertex="1" parent="1">
                    <mxGeometry x="142.21539202350618" y="409.95458825156845" width="25.57709766137279" height="41.07543653018624" as="geometry"/>
                </mxCell>
                <mxCell id="56" value="" style="shape=stencil(7VjLbhsxDPwaXwlJ1IM6p+l/BIhTG3XtwHH6+PtSdeWuuN4xfCyQm73LWb6G1Oyu+OFt8/S6XgX3djoevq5/bJ9PmxV/WoWw3W/Wx+1Jf634ccUPL4fj+svx8L5/Pv9/fWqW7de3w/f2hJ9nnKdUGyi4X38veGL358rns/1uu5/YC/kw2HO/cNXcZ8o82Dty4PFB7d1gn8mlZXvOxDLGX6kCBzHagLiQ1GVA8uTGCqVMAaScIkkeUyjkQQ4pUY0joJIUANAAygAonkKGgJhGQKAiGDCGVCJxvCukRHIj6bEPpVBgCLA5CEXQ6dYHA6gUUNKRfLEAQSGxDUmU3R4AtOo884C4FDr7pzmgTnuK2VaJEZccVZn1AQ2QUB5DSoUqSDrq7bGsMVAEIUWtyRhSSLhxyqUxJM8QkCPVcYvp1qsgJGV/MiF5mLQEW1ZdMxVwSaQP5KWsTAI8VOWS2Ro6gwhQ7aoUPEAKMIusOkpgpr27LPcLIvRKL7kwWdcE+a2AMHauFmLkQek/rm+9gvZ9e57JWuuAypR7xBMAIpOm6MUCGCUdZx4EnoqVKY0jp0F6FBJ36lwAjBunx74pqyoJwO8W0rj6BG8yTdp4kAKPoFbWkXyScB+0JtkCkPZRaphDTgFwgqQ/7wJQsqDG1VlIhQrKodotIDfYqtw0jQtQwTX2G4AuQ+zBaActdAbbWKuUZyMaEZe0JmYJ1L6flzptRN9kVS2RydBVXWTUOS1KtEkkxG/ujZ2UCSmmuwGNOuNQFx1zsPpENd4IyL738vqxWO3bgB72ETRCdWoZW82xM37ppDZqQ18IEL+bFjAeHDESotG+AUUPyaQAo2ea0rwhTz70/Ye+/z/0vQJslSI5JNczVfO+yxjg+gRfJk5PYtAHZqt/dKbR1ggzanjpU35duaq0MAcEQ3rr+4LRoR5rh1lEgaFujb0iE/sKMmCrWkOERAp26zWPYAH4K/FnMAreqjf1WEC+brbndQtD+2DsHSSd3jUNlj5JS/YjR32GG9X1TzwTPqB6un5OTgiXYb7m0PEB8ufe73q37fXHv4+IL9vd7vwNcnrffnTUS+cPlvz4Gw==);lineShape=1;strokeColor=default;" vertex="1" parent="1">
                    <mxGeometry x="113.59650244225361" y="425.62479337461616" width="66.87155159958692" height="31.04555452578566" as="geometry"/>
                </mxCell>
                <mxCell id="57" value="" style="shape=stencil(lVfZbhsxDPwavxKkbj2n6X8EiFMbde3Aca+/L4WFNhbVnTZv67VmJc4MD+38w9vh6XW/c/x2u16+7n8en2+Hnf+0c+54Puyvx5s+7fzjzj+8XK77L9fL9/Pz8vv1qa1sT98uP9oXfi04KZRLQzn+vbxxTHF583kBnI7nO4CvJH4A+EAStgGJydcBEJkq2KE4im4ApEo5bgNqpjICSqQEjlQD5TAAhJmYtxExUpQBUZkSOJNnKnEAZCEHABI67R0QEmUBgGhpch4KoTrxKESiAmJOkYSH9ZijKv1zq9AUKgjgnfNVhkKcgTPUrHn0nlBwIARPdQw5qC6AVD9ZKQSYDuKpGNl0TyQbk4gFBABI0waOfNpeH6wtWshABk9u/H7LcGQjciOlypkD39fzjIngY3+zEW+d6gsjBZRQE4AnRpmmAqURoBUHMCpqimwBCfjUCUW2R0KaKUmh2KDRkZSlYFRIUDWXyY+2UNkqYGn2nfoiAx00250xniYn2mGq8+rsjApG7brepQ4qwloipVpABSyJWJbaDgAwOaOFAJwxHwgXMN9dcC8CTE4xyZZhNQq2AjcbwWLEU3JGD3rCtF4TAQmwJtZ9qqHcTLZttmQGCnwY0P5mGzOcFYTE2R0c6lKV/NgSWnqDoLPSOgK0cRYASFpUzYREDGQIuafJuoHgqdB3Du+GETSzKSVmBNNGK6itreVqnV4STJ0ifXxaY17duEVSHs2aPSyRemI/ZmcbE1GJnHtnpYSGBaqG1dSH6b+uZ0uqFhzUd7iPW+v6AJ06DWwaEaKUe3FY10vvKhvxJrP+H+NaH6lXm1aqKDXJZbvegfWZ0jSgIlfrLMLFAuD46Gw1UkBCPTDY4aV1RVTvMvEEyEDjD98I/wOgD+8X0Jfj6bTcX+//txdWfbVcdv3jHw==);lineShape=1;strokeColor=default;" vertex="1" parent="1">
                    <mxGeometry x="233.78075094944938" y="395.29407206998246" width="18.97611683052247" height="40.26091888124512" as="geometry"/>
                </mxCell>
                <mxCell id="58" value="" style="shape=stencil(7VnLbhw3EPyavTb4bLLPjvMfBixHiyiSISuvv09PFhwNi7slOLkEgW6jFWvIflVXc075w7f7T1/vTil8e3l++vnu9/Pnl/tT/uGU0vnx/u75/OJPp/zxlD98eXq+++n56dfHz5e/v37aVm5Pvzz9tr3hjwsuqpS2oVL48/JLMbH49y8/XgAP58cjoIumGaDSKwEUKXUC1CyJAEx0PlFtksmJVFKc1msWpe+3Mr/fDSjEgCilo8UxUECzGVCkMRclSRCELLVTQIcdErU5uksiAkLiUQszwK3KBFAlrQBmQxXreKTIAIqJ4QCaqk2SolvfACi4tUpkqdEwlzw1KvNSlwBxaMMNt3bASJsUskMqEqHc+A6pS8xz/RRJBJCXXFIdVl0FeCJEAETpJPleKWi3IUgjFVf7YIgByDxwThE2Z2s0yUYAdVTwAPRBa9fXe/3McfNc5etbhPWBhNnPE+bzREnM4Io8H0YUb603XB+ZfzzvI6wPJGLaJCiuZ/5pUg3WZ+afvr6fkbx27FJRKl/f5spPPH86pnSWzN9v83nKW/b22d4qmZSYxxfI1KQ3uj7ObO0OLUoPBICtj5KMa0HMwEORbNA8QxNGgGRc9/fPPLc1RRKCXpG2NuYjJ+ptvG+PgVGh0BWP1NMoo+uAhFG2Jo07Kc9OjYEXZstIpZYolW5bzJna+qjV60bsTHXoH5Xkavfcnt3kLS2RYnCnBAhE4JLTIwdahKtg62j0BiD14wBQO36kQuJgJnXuUDVSeeSADo3fZSWTeK+ZcFDmrER9C8jXWsY0cAugwEqVqkgHgIp0ca4MsIwjW24wGxoSqwMKs8HfZ8sOpCBMh1Y52sAipyObD17qLDfqMsIUqo8cgN0hD31y60iYGpxdHZDhSJGX3D50HQuC12gBNW9U2NoibDcAs6GPgeVIGzy90egw5PotAKhI9xIbns1QhnngGH2bLTxT3rKhwQ5O6JxnMgA89qQHuVv7UqJM630/IOL87Pqe0Uwvg1T2nuVymxjdFubzLqaE7x3QZoBlLk8SDgy+A8vWnpDINIzx9ZYASnNq5MY7e14kHL/qUcNG7SrU+BQDo6TLUJatbiKUqKtEJoAcAGIjpnE78z64nd4Ht380uPHz//vBjcXXUKoavSrUpW26AUzvaMQCKIHKF1cGqwRjqnC7q5xT1Ge/SnIoJ4xBq1Rtu891li/OZUwVRhtFu5Mpn59jwTB4n2V1836LfAH8N2+RWRz+t7fILHDO8jD08I8qHoe23PEa2yGh7mxxXABdVyM4L7Q+7meuc8C4z9rX6zji1fXLMOzMyRqDC3e4o1YqvxTHc48ZawxebHD9VHhnW0/kAHaRvzUCUPKJaou00/QO6Jz0XDYrAhohbgeARq02yu9WKVRFQOHFhpdJRoW5A/CDSucfPHWE6QCIrBQUJWHd97xZbDCdV1o7DqjQogsthg2wXA2xqTAu98meS4EfCa57fXamtPrdX6rfBvjD64fxL+eHh8t39eP/8UO6/3T5CJ8//gU=);lineShape=1;strokeColor=default;" vertex="1" parent="1">
                    <mxGeometry x="288.76019113103825" y="379.50581557146575" width="85.04422352702832" height="46.78965084104519" as="geometry"/>
                </mxCell>
                <mxCell id="59" value="" style="shape=stencil(7VjLctswDPwaXzEkQBLkOU3/IzNxak/dOOO4r78vXA9VEZI3k1sPuSkOVnjtgqA2cve6e3jZbji8nk/Hr9uf+8fzbiOfNsz75932tD/b00buN3L3dDxtv5yO358fr3+/PFwsL0/fjj8ub/h1xWVq5QLi8Pv6AytJ/vvL56v9Yf88s4+NWhwBlaTcBghTCiMgU4i3AUkotAEQlbQCQKHiQqIswF6pyOiAErKvVHWwD93hqn0OxMXZR/D+HEnZ2YcA7IWij4cTsE+U/fsriieTBlcfBZTIxdeTqTGwV1+fRILyVcqjvQXYsP0Yv1Ea9UspjvYV8s3ylbH+MfQ3rBMo+YRjoYA0k70EBLeYG0kdS8RUQUimSqcZTaTAg4ksjoBqVQUsKuJZ1wKkkTaqxXsoIKQmXjc19rqtAzJFB7CQADNa8cwzQAXUbkot+JAEhVSpjY2r3Fu5Dmg94gkgVAAghmmaTAirA6pr6zlOgEnhtwDsPGhP61bWceR3bVAQ1ghf1wbpaq1O6gENeUgUsgcU1DnuQ2ICWC8VAGJX5KxKFQN40YcMRG2A4ELCR60B0oJMGWjUko4LujLqtBC7TpsgkIJS1/xco6gPxc/KCwCxVRfUiBRR0pVK8UnDsjbKi7IyStq46chnZUAhGWA8co0ab2g6OQ/TqXoraT/6KlbctDfOBAQ9vBdQpzVtOlEKPFFK9CfKbBiun3KhbyKTiwRdsOllJJMq1Kjtzy4JWxcTUNBlQx8lZz7RnPlYhz/W4f96Hc6VeCRoFLgupNYJM7ukMtpusz+mBC/cpkqne7ElCBXVLzBS+4ayHpHXjNmjlYr9KWj2AV3LKbt4tJdg1d6OSF0UCAwVk9TYAUnwfrHYOUUoARGExYXHjlhQn+A5bRckRWPXU85uTBnEw36mmAgyGCrS70IzhqKhkhYzWmF93vuZ5m17e/j3TehpfzhcPynN/++/IdlP1+9Pcv8H);lineShape=1;strokeColor=default;" vertex="1" parent="1">
                    <mxGeometry x="392.4308646925481" y="367.8893168885984" width="37.1391714872928" height="35.80816860433316" as="geometry"/>
                </mxCell>
                <mxCell id="60" value="" style="shape=stencil(lVbLbttADPwaXQnumzyn6X8EiFMLde3Acfr4+1JVVWspaIrcZJmz4uzMcHdID2/Hp9fDEPntdr18PfwYn2/HIX0aYhzPx8N1vNnTkB6H9PByuR6+XC/v5+f59+vTVDk9fbt8n1b4OeOCkPCEivxrfhOpyp8Xn+f603he1adGLH09U+R9QMmUawfIBkj7gBZIcweogVLZB0ilEDtAE2ptH6BKMXQATcQZAlR7QKZSIUBKD7AmAQe1jvtt1UY1AkAl7XWzJQRsq3WcHWmliloKVFoHCMzEQGoRqs1/AvVkynHygACUk0QaPGsGdpVIJXshqkIA93bVsthr9wu9+8xMyBvGQZzUEXpDysZ9YWlyVwe3rUwJkJ6kjh7wNyJ7ZkrVAwoyUyWpnkNCCbJAFL9LBYdaHOkMQ71y80pqmDldBtcqpDDVluFNSDMiUSg6qZUySrVtyiZBCliLLhTXADxdvXLWEvpC3kTOSOPI+VFm24pD/TGAHSmhj5wtkYH7SvUcqikDrJHE65AzVNpOTe0BsUClgx/fQgkklCm7M5ECGN2bKBRqQDJepvQ/tpAs+6md4JUherVsJoPV7UzoqZrawJ925vTlDK0gy93jXo6aCbxs3KoecA3Jk7XJC+IYzCXs6gWt3xab3HenIpt98D74/3p7uF8+X8bTab67rv/3l1V7NV900+Nv);lineShape=1;strokeColor=default;" vertex="1" parent="1">
                    <mxGeometry x="104.88755932893082" y="523.8894361969203" width="20.911134684512547" height="38.38691387814734" as="geometry"/>
                </mxCell>
                <mxCell id="61" value="" style="shape=stencil(rVbZbttADPwavRJccs/nNP2PAHFqo64dOE6Pvy9VRUqWsqYo0DdpNaPlMTwGvXvZPzzvBuGX6+X8dffj8HjdD/ppEDmc9rvL4WpPg94Pevd0vuy+XM6vp8fp/flhRI5P387fxz/8nHiJWEeS8K/pIFeS8Ofk84Q/Hk4f8GKfpSPESjltExJTbR1BmVLeJpRAqXaEEEnaNqFWirknEJdtfAsUYodnYgZ4pZoc/s3C2/hM2sdUqESAr6Tc54AEBKg1SqX3l6kAgwIvDi6MRBVkebyiD5H5XLEP0sfIlPUWha0gSZ80U1YVmIXSe206asgkU0FvkoZZKFs60pVSFdxQs79BCmWk1EXIC8G8QgT1hNCIkUlKwdWCUgPlaYTWS6PNTt3GJ4q9zxEKo1pE+mIIUKuNSXo8U0B4oZYdXlAxJ0rJ2VOBv61QCc7fhotTootnABk2vLPful3ApVlWkoAeV184JrqGS7M5lRaq6IZIuffZCif+T0JZDFiyYGkDskiFtHfaTlDH0+SHSMlzm73dVMVPhbGPg0qwJu18sFRmVDrzXH1v83hQmcHBX6AgSHGFtxgBYYgXkhVTBPjg+6kVK5oJ7FuLdWTUTldTzfprAbXM81qw4G1ugpHDlFeSQPEJ898WvJKC/+u8aS14niN2W9T/uKv9HW8P74vh0+F4nPbKj9/9ImlH0xKq978B);lineShape=1;strokeColor=default;" vertex="1" parent="1">
                    <mxGeometry x="102.32584763126476" y="513.8884106885002" width="24.32249682822956" height="13.043043009693207" as="geometry"/>
                </mxCell>
                <mxCell id="62" value="" style="shape=stencil(lVbLctswDPwaXTEkwBfOafofmYlTa+raGcd9/X2hqpQNxEQnN4nCisBiF+RED2/7p9fdhOHtcj593f2cny/7iT5NiPNxvzvPF3ma6HGih5fTefflfPp+fF7fX5+WyOXp2+nH8odfK65AKQsIw+9/CwE4/F35vMYf5uNNvAA4K0BCyG0MSAWwKgBmoDoGtAjIChCBnIxahppUfIDgxHOA5Zv6f4hOfALUFMmCF18h6XwY0CGIGZLJJ0NxCIphK3CjFKGSu0XUW0hO1auhQNNNowzNK4IgNU1SgOJ1jYGiBpAviwQtWICn1BYsr6LUmMaAKl7QAGq99fcBBE3XQAiFHQB2Jdx4gX1ANF5ovTOjlLIWX0QI3g6li3kbAECOlCp30rcSup1GbUMy7oyOkFqDmk18cv7P2Am85sNefIGs8xe7ek5owJqfSN3fI6+xmXcBKLuAbADV36FC1QOJxAmOTmWCVaNT7l0ZjUizQ/KF/WFA5s76JjuE5ABknBgniBKDU3RkaDol4Q2dPsRiOy2d8Qa9CMEcPDeTeTC5rTuvzb/vNitWqYGdGt7NSM5uo+Xo1qRydA/zYM3WhFOnYGmaprQhkCPtdwdbre7ZH+ztRQYmOaKQWaj5L7WP8AGfQddbqIvkbvxHb1P/j5eH69XtZT4c1pvf7Xd71ZOl9ZpIj38A);lineShape=1;strokeColor=default;" vertex="1" parent="1">
                    <mxGeometry x="119.53601553898886" y="531.6604242599703" width="18.58037951489294" height="11.810918835716961" as="geometry"/>
                </mxCell>
                <mxCell id="63" value="" style="shape=stencil(lVbLctswDPwaXXfw4POcpv+RmTi1p66dcZy2+ftQVakajI1ObjK1awjAYsFJ7162D8+bSejlfDp+3/zaPZ63k36ZRHaH7ea0O7enSe8nvXs6njbfTsfXw+Py+/lhRs5PP44/53/4vfAKKM8kobflIBGS/jn5uuD3u8MFXhKiGEJUlHqbECKkGEJgULhNSAlcDUEEgW8TSkKOhsCoHr4i2gAEdvBVEPOAl+zgIzTZBKAePiPZCiUIOfg6VpQZ6lSUiUBkGRmS3BB5SEHdELWMNW3KqtEhJCT7SaqIXtYBZIWnTYpe2xg8RGiFdpIuBRzHCMVJukQE2wgNYGd4SiuiJUhFEYcgoKEPAeqUtTDSMAsF6g2DQNgSxCfoR7VWZ/5bkcqgDH86C5LtM/m6YMQy4MnXUbDTzP3gllCrxYduN7cm4a9mOr76Mm0KGL6nOaY3arUP1lpQf/wbgQbVZXBxDUltCipgL0JAVUuIyH4TPkfIijqsndwN5Cohtq7aKuUKdvo8T6IdhNoWm2MXzXTFRphd05uEMYULX76+CZHCGICcLwrjam6NJG+XIw8Zrx57PeNuDCue3EVFo9vNXuCMwoct1dyMnIJSV/Ha4uRaF3XjWfGM7Eli3Acp94pdxWv38hUfegWuaxTFDkFqFxcH/9m72v/x7eHfxfBpt98v98rL9+NFsh0tl1C9fwc=);lineShape=1;strokeColor=default;" vertex="1" parent="1">
                    <mxGeometry x="129.74863245829476" y="553.1444623666398" width="23.305614107177632" height="11.35251809590045" as="geometry"/>
                </mxCell>
                <mxCell id="64" value="" style="shape=stencil(lVfLctswDPwaXTEkwec5Tf8jM3FqTV074zh9/H2hUakKsLSZ3GQKK4LA7oIe+OHt+PR6GIJ7u10v3w+/xufbceAvQwjj+Xi4jjd5Gvhx4IeXy/Xw7Xp5Pz/Pv1+fpsjp6cfl5/SF3zPOZ0p1QgX3598K1Xnh6xx/Gs+reGbyXsdHCgCQHJWmAKFS9PuALK+LAkRJKewDWqCcFYA9RbcPKI2cU4DsKEaQUqEcFaBJSgkAEjUDSBTBGTL31wugkkcAR8wa0CijPhR7aAE0cOjEVKpNqWYA8OQ0NZqQCwBipaY73RhyKZbOzQ6ojbhggKZGTRQYp6SrVD0x4JLQ2wBKoYb6wJZLJfWVbUDuVFsAkRJISajhqwXkBskXtERLpoB2SHcpVayHQknvUAMxSqlaeteMBSRV1zs0RwlpOlM2bI3EyJfktdF06SvbgMWFVoqDXKp33upcV+02InZnXG+BNWoEIYeIoHOxUUq2TBGL2rNtRAGdE40WXde6tGZvh2gA4SOf+RxAvLLoM8gnkCBEYEYQPvQybM+s2tu0TEVPDfRhxYQlp9hluzcWm94iL4Ny+xDZTuriIGDiqzYacRJkNNyoaIKLfSbAjSBV1IfmAkd7ItYZyQq6bCzzZolnGO8pa70FRxX02XWnXnghEwl4xl2T5XaFtOCs2LyMK1DQu2klLQQdDhQ0rVO35W2hWf8KcBRmqwFPAdRGRoymp4OjXCqRoolHXiqV9snEI5P47M3543h5+H9NfxlPp/mWv35vr/WyNP8l4Me/);lineShape=1;strokeColor=default;" vertex="1" parent="1">
                    <mxGeometry x="164.38859407172095" y="520.8854405029169" width="23.780056584363223" height="19.15832185289929" as="geometry"/>
                </mxCell>
                <mxCell id="65" value="" style="shape=stencil(7VjZbhsxDPyafSUkURef0/Q/AsSpjbp24LjX35eqobXFzU4QoEBRoG9rWbPiMUNSO/Hdy/bheTMF93I+HT9vvu8ez9uJP0wh7A7bzWl31qeJ7ye+ezqeNp9Ox6+Hx8vv54e2sz19OX5rb/hxwQWmGBsquJ+XFWFi/3vl4wWw3x1uAYWiGwClkCQAYEojIAmFuA7wkYQHABcKvA6IVGXY7yv5vL7fUQqjB31hZbvLw/ZMAb7dje5GGB5HPMafKVcQHGtM6NF9PfjkR1c9RVnfrmQY3+6oAC4k66qjAIzJlKPZ7sD2Smzf7oExQrWa7QmQxnsKhjWQZD5QZBN5jxLFnSXXxCJdKcejH+1JFAqIpjKnjAdgLlTfiTgzUygDNki13MwMlSti+ZMjJZQzIRmTkFNfWQWMpMhYvArwIy1yJQHyFa1mpjoo75DTucfkBiAIEIlHJhWlHqCSBOJqAR45rdQXa1IEJ1SN0kiNLJ3urwMqhWDD6tAJZZG4TAnkoZ1gAFpuQFibD6OAlK0ZCEjmAjEDAmXE1tAVPAM8rO2aaVMDFFBQpvOCrVplgKaVrbVYQMUC8kbTkRzyYVFXNQ+IS94tOqBq1GGNRlMFKqxkrTAZgLwV17rQaEEmadNeSC4gAHcXbwFAQeKt5JpJmN+pWqcrMOndgMJ9bJonNdUoMCl5yqPTrHkAotaeblqQdsUA2Kddt44m6UoGYf0/2/2h2S7azvyPzXbVhOZvznY+20uW3nEY6aRYBzjC8HPuyp6lW2CIorfjZhHYONp8OnYaSXC2U5PMNU6rcEEnZHKjSW0WA+VHY1KMSbUT5XUA27Bq60FDCPtebG4AyCRlqpgp3mElhMUkpUcUkLkmtWwB6Lqr1zQONkzwih8XYcIX8HbFH4uF4DH+qpcZELtXa4B3fqZ4G6AP168iT7v9/vJR5fZ/+xVFly5fYPj+Fw==);lineShape=1;strokeColor=default;" vertex="1" parent="1">
                    <mxGeometry x="216.7134541071805" y="499.4994334499031" width="25.664006434854212" height="32.74200417061767" as="geometry"/>
                </mxCell>
                <mxCell id="66" value="" style="shape=stencil(rVZdbxpBDPw192rt2vv5nKb/I1JIQaUQEdom/76mpyXYcIMq9e04PLf2eMbrSR7e1k+vq4nD2/Gw/776vXk+rif5MjFvduvVYXPUp0keJ3l42R9W3w77n7vn+ffr0yny9PRj/+v0hfcZlym1E4jDx/yiFKr8983XOX672V3Ex061WECiUJcBUilXA8iZel4G5ErJApJQbMuAqgnYGriNT9wE9EiNLYAY1NyFUjLxgQR9P498P+MDKKAXapbTSILiG0m0DFFE+feR7ohvFATGd7H5MJWOAZagWKncyajbDjBJwCXbE7gQJ8hptxxxx0VnYlu03OmyqqJ7QEQnqOxsG7QPggCBsitalVWWAa1TsTWo8pDXFMDZNq5QBLQqIDlpxMHbUg3RnqDzBWSkJLlGy/jA7Xim5r3WkPISleC9iYRXSNjFV6SK6r0sFEDL1AnBzdN7zmnBNyAAb8ZwLvCM0AGM3XytohahOeuVTgMyp454N4DbEOL/AdRK0do/J3iv5e51VCM8QTply1JT6wAlKYnuItSq0LWgA87Ol4tW3gQkP1+0kxU0WihbjrSRBXiZfUJqjgwKUAItpToyK/BC8Izq8EDzMQy+LzqQgU6vjNB4jPCFeLayrm1kuBDv1grdTBqQUKRyJbkCZguPbp5HRYfXQRqD4Rxfx7Z32wP/uAvej9eHz8XzZbPdznvr5f9+UdVX85Irj38A);lineShape=1;strokeColor=default;" vertex="1" parent="1">
                    <mxGeometry x="208.39036161238528" y="501.47121659180925" width="34.34208780558733" height="12.136364197520058" as="geometry"/>
                </mxCell>
                <mxCell id="67" value="" style="shape=stencil(7VnLbhsxDPwaXwnqLZ3T9D8CxGmMpnHgpK+/L7eO1ktqPUYPRQo0N2fDWUnkkBxqN+Hq+f7mabvx/Pxy2H/eft/dvtxvwoeN97vH++1h9yK/NuF6E67u9oftp8P+6+Pt8e+nm8ly+vVl/216w48jzlNzE8jzz+OD0qjF308+Hu0fdo8Le+cpNg1IVBsAVGpFAXKjks8DZEtFr5A9+QABNStAipQdAAQKekspkPMAEInNCo4aQ0BtFsBoS+JEHYfElBAgUykWEJGXCpVhhddXrAMqpeEMCXmpUYga4CljQPM2cMhLgSmwBiTK4NACiCZwhQIg37SCOXQjh7fEhq3YrUEyLugEqv0V64BCXBWgBoogRaOQWW+pegoJAAol7dZcYBwkrtFwKfaUWgWIT5Jma4zUwKEL9/yaAQEGrnKn2gyo3Q3rgEw12jMwWqHaFS6Qr0o+6MClTBmt0LpPFmxFXmo8xKFRAtQQQNaA7GBtFUAainEDkRZA0PTOUozBluTQ1fSHTA6wVQBex0HYGgFbJXDRACrMhyr5ECyggUImXEo60tLjXpN2HZC6TxYrVMSl2HvmAuBAHOrYFBMxWiFQ1WeIDKu3eClrgDTiiKgxrBCIEVmjDYPrD9btk42zpAcIQsu9jJ7sGTT1NpRJJof2X7s7TvZIKTUhtrb3MMRib4RS6CVtXYnxfL6ZE1SQQ5vlkIQc5I3YR/3+uQKec1DW73cMpWEbNIxzsARLiHOxACTc2lzSF4CEziyJyfYMSHxKFpgi32CfEnvTOkun+Tl7w7rUaXvOvuisCTDt5cBeZ7HDPSqRs1mD9JGEzAgqhvJIOPHaLRb2iBJSN7OxT4ikrb/udN6Mszgn40+Pk6bZeMHzir1+v2g1FK9mO3iFVeKP7aNVzDKaVLQhZx0UPZxc3kp4IVK8kfBCtXFVeGEvvQuvvyC8ZPoKg1vBCjL+2S05qIuKsxV4GmqBW/OQogKowEvTzGsGQukqYAVJyGCUQoAZJxOkHWozdGvMVHTVOMm39bF5qGML/XNuMmezROqC5tyljVEXQi+Pr7bM/UXxkK7vV1sd8H9ebYEV/sWrLR4qGWO3Vptx5UIcJIF0pKsUQzTzRNuopSkhPZ96lOYaELreWq9LNn0mfYyKjK2sYo/kqu9vW+wHVWI3jGDzhf2qvURUh0zkmQekYNt7RBVkUMG4i9PZHl9pDSOq9AUUYO67ne0jvCRgO99VfJ/lunhfEA6pKm+nheliEpVTWycufH+5/L1Gfpw+9tztHh6O34qW/7cfh+TR8cNSuP4F);lineShape=1;strokeColor=default;" vertex="1" parent="1">
                    <mxGeometry x="249.25716005431286" y="480.01486377739" width="58.83315395207613" height="32.2559282494685" as="geometry"/>
                </mxCell>
                <mxCell id="68" value="" style="shape=stencil(7VnZchMxEPwav07pluaZ4z+oIhAXIaFCuP6eXozW1mi3DW9QlTd7PW1Jc/S0Zg/xxefbN59uDsF9fnp8+HDz7fj26fYQXx5CON7f3jwen/DpEF8d4ot3D4837x8fvty/PX3/9GaxXD59fPi6/MP3Ey5I8QsouB+nB6VKLb+evD7Z3x3vL+yruGLtU96390GcDoDqJUUCyKJ1BFQJbIUmrQ2AFiWSFYIXP25J8YQDshsBQZKjgJJGQJRaOWAMg2bxJAwAJAMofZN7AJdHAALtCcBJHiOtjQK8ihqA8tRQCc0CmtJI5zE1vHPiyKl9lVbtEiwQACy/jYDfT7YBRUq2boqNAoK3gYjsDLl7cc3vJsrclKWNZ2hOIgNgA+OWKtzK0hW5YVjDS2Tpmq1bc+1lvgmI647XFZwEBkC9jF4qWTIp6qidhlYA8psELkXJZoVK45Cm5CuRpkYOnYZWL+W+5jYg9YrsgFREEwGolDEOiVMfdqzeApRkK5xosnVxAzl0DZYr4YZEzlCLpQ0cOpAtAaBjLsXAt1Rs8qFoPaG+BTA2iNSZatd+9GrsZLtnb5waJPMD1HE/vj/Ytp+6uqPVCfukxj4RkoS9NmPvSOXUNv8/o/mq/eezvSd1A/tUjX1mKbf2pbM/PbEH3xq6Q9EQ/8A+jTWABCVVCXtDRbFT/rZ9mfYPWUYSCHLFjQkalPIEumQZMyg18WRLAKhhIu2NcbtJnVv9ShSui6C9JYwwzBByJO0AMPoir+S0B/Cjm3Kk4hbaICcLYHQKbaBxArDI1a59LwCFAYpVC3kN/h4gTYTtCHsBEMyWHC2HBTDlRuUAo4ZTowQMQB0jjS5FU6NuNJ0rgTPNHwDG8UiNNK1Q2ApqSRtncLxGc7SAxldoU1EzXtquUcbcCw2YZPKUBhaiGakM2Rc5IJiijlQuLNecqUaZMATAyrbED41cm0qO8TfSVecz8Py2PBM4VxbbUa4AmvYxwdqC4CXSc3EpL+byVvvVaa/pGtnWromeZxH2LML+XRHmbMXgos7mVM132vnTEnM2wguZ8hTyo4twj6c142yjLYEGDZdwM3bCxb+QFXDNt4IndD7evtK2SfA02hBAzsnZQxcSB7Qw08qxQiNMAbWSZm1LSgdhsr3fUS/hDGpyDzKOTQqaJceolL0AyFMnV+alLKFYt7J5If7PDMKq5wOYJH7cEiiKXctjtSoPAFaiMVgKqLnPirfnWpNSLUpJEpxiSKDGro735rZ1XAG0cGX2/DzdDs/T7f9lup16S1sBjspCH6ybWua6Stx4ZpAA0z2hE+mFfSY+CrbeFuHEfGozb9kPyzw7ikHXjuT/J1lyHmfu2FsazlQ0uH7JXO1T9/CevWHtQC/zzt6mlheGJCEmSQKREkiKuq7qLiibnddLNGP/VRjv2Ov0hpTp+L99A3vdHh/Or3vfHe/uTm+LL3+3r4fx6PRqOb76CQ==);lineShape=1;strokeColor=default;" vertex="1" parent="1">
                    <mxGeometry x="330.2989126703292" y="447.4002110775974" width="90.2863964215849" height="45.93852530711542" as="geometry"/>
                </mxCell>
                <mxCell id="69" value="" style="shape=stencil(rZfbbtswDIafxreEJOpAXXfdexRouhjLkiLNtvbtR8+QZ9Hxjw3YnePkC8XDT1IDP7wdn14PQ3Bvt+vl6+Hn+Hw7DvxpCGE8Hw/X8aZPAz8O/PByuR6+XC/fz8/z59en6ZfT07fLj+kf3mcuZ6p+ooL7mN/ERDH/fvN5Bk7jeQWUQq4HOFH2AMgk0gEhUg77QC7EtQN8IAFAcuR6C4kCOFFQA6E3ECkJAAJ51/sciUGQ9AC+D1IqJOhIlXLvc6kQYE+pB2qmUiHgSw8UKsjpSqX3oUo75G5Ycw9Uig4AGsRiAUFh9eR6C95p7oEJrz5uzoRqSStB2ALMAAiUig1TAmHyvhXnKhEZJMI7K1FNNQS8LaaaqKAoMUXjg4YhASDbRCgQUFgrhV5BlXGqNaxpA4A8qORspmMT4X1A0+QsgOqbHUWxYU0grCq5uNFoBGGdAFN8BTZjPRIbHwRLTihsytsjUes0CBYoEfdKsUBFepA7iquollI7wApISKK8cVpg8amAbPEJbjOOxGR6GZP/BxAraXFQcNxm8jKApA3Ju79f2ugy4VRuIM2p5XQ1o1GEtNfX3gBu3DnYrWFR3/34qJr7otAkemBgKuO+KPSICXi8GjVLjLRxA0KqndGxtGGx54QRWxRi0DBEB0Hf9GIlB6QgkaK3QEIWPImzQEXrnlA1y5hrw2JvP/RhAyALbPdDPVJBFnSAsgUYbaCyWYqlLUN7K6tNXGlhuA9kuzUo4IEPClinc+v9e8C/LfZ/AejDn3vEy3g6zdeQ9ff23qGv5jsLP/4C);lineShape=1;strokeColor=default;" vertex="1" parent="1">
                    <mxGeometry x="452.9166517028036" y="422.6378276903556" width="14.840691510678827" height="49.59291756784029" as="geometry"/>
                </mxCell>
                <mxCell id="70" value="" style="shape=stencil(lVfRbtswDPwavxISJdHSc9f9R4GmS7AsKdJ0W/++DAx5IRPd0DfH4UkieXeUp/Twtn163Uwc3s6n48/Nn93zeTulbxPz7rDdnHZnfZrS45QeXo6nzY/T8f3wvPx+fbpEXp5+HX9fVvi74CLN8wXE4WN5Ubm/+b7E73eH63ihwAYgukQYA1Kg2gwgRyp5DMhCnAxAD1nBkUqlVgxgptDG8VJJqokPFEAGs8bbGjGlOo6vM2Ux8TFRAxm33NfrgBQpCAA0yrZEJRBjQAsWkHofhwDbtSKwSAoQB6h9zxEg2ByUSDkCQO1dXQGJGPCiCTXbN8nEoHGteDEoIOHGCfsjZQRIJOKTFpQDU7OA0ro8RgB3JG1cQtRgfySlRkJHUuZYtir5CgbUbB2gEhdY1mqPpJ4gCHBjSrl0T7gPmInZ78BID5WSA6jKsYDYKi43TI1GsysrQxOIYbWtFVH+p9HqbGPu9Bom4SQXSFAS1RuT6DhBgLmT80pyAQGE4o1GMxJE9k4mKx9HdHXjRHOALpAoiq9SRH34KqA2ipYbGftM1RwsXVndGFRpnkksl2KlioZi8H2IBVZJ1qm/Hil0md+/B2jStg9J/RnM9ZRvjKnAHWLrrrJeHIQyGBDFXxyU78iXbnxMBVXA+to1u/6VxgcAl/FF4mAD9rbX8DSJnWVXCQewfuicWeOFCjh/oGTtQtWKChS6I67xDHVw45AtdFsexDth6l2uAcrp4LP1rAXe9PRa527bue84iL9zO/9qvBnN+vDvU+Blt98vXxLX//tPB321fHakx08=);lineShape=1;strokeColor=default;" vertex="1" parent="1">
                    <mxGeometry x="437.858181456018" y="452.42429380950307" width="52.747862440510026" height="21.127718572502893" as="geometry"/>
                </mxCell>
                <mxCell id="71" value="" style="shape=stencil(jVbZctswDPwavWJIgiSI5xz/kZk4taaunXGcHn9fqBo5AS1t86YDIIHF7pID373tn153Qwpvl/Pp++7X+HzZD3w/pDQe97vzeLGngR8Gvns5nXffzqf34/P8/vo0RU5PP04/pxV+z3mZapmSUvgzfxAhln9fHuf4w3j8FB9Io4tPiQpvx1dSv35kaiA+CmW/QSVJ2/EcKarfYNlxNT5Xar6gQCGA+hNJ1wAF3Y43+BK7+EIRrN8aSfXrR6pxO0ErxewTFHasbVnvOjJdalxPKNQ8pNwoN9hDai7BUJYMQKpUxIPEFEEP1YbqSypCAdDCCgi1T9AKeBQo+zkXgwEIIRqRgk8IcAfr2c8t80KtDaWJj+cCmXrl8XXMhSqCqBeadVQAs024xW/QqIF+rWFOvgFKgBQ5LkbyoUwGQrCBdoBaPFJmoipdPRnU3wqxr8dkg4SZKXl8IuaoCZM9Rw0y5C0qfYJRArWgVy//aoJS7Ny3LtpeJ0W4oZ0wBZBhXQcvZdFFSesJt7wzmIBw7Hf2dqQR+pd5dva4mgUK0H69OdUmkwW4mpeUzuUDPnfMHLSrSUlAAidqXm42fQFd28EtfhDGYAa4xtxbZFN4VN0cC83OfuQAa3cRgOr/7y728HHxeRkPh/ne9Pl/f1GyT/Mlix/+Ag==);lineShape=1;strokeColor=default;" vertex="1" parent="1">
                    <mxGeometry x="479.6640590921543" y="418.6006777340107" width="4.8425288738468115" height="8.254313339724137" as="geometry"/>
                </mxCell>
                <mxCell id="72" value="" style="shape=stencil(7VjLbttADPwaXYl9L3lO0/8IEKc26tqB4/Tx9+VWkK2l7KkD+FT0JsscLckZPqQhPrytn15XQ3Bvx8P+6+rH5vm4HuKnIYTNbr06bI56NcTHIT687A+rL4f9++55/P361Czb1bf99/aEnyPOO/LSUMH9Gu9wJV/+3Pk8Arab3QwQHZViATlcB6RAuXaAylT4OiBHyqkDlETZAUAldh0gZUoRABJJ7gAhkyQQA1Pss+QDsQCAp9ADKglKkiPxfcyUkEOevAl5CumaPfesaZJBhlIk33MQKABVpETck6wJQPGWKd+TvaMENJGEQjb2DviTPRX7fIckFEnE2EdkX8hbf5CAMk/Hn/OD9JNlov/MlwP2Rd1lo4dUoT8Se3/yxPjlA9TfHhADVcBYdTYCzRmimDVC0ycyVaBpYQo9QDuRgKBFKJvWpXf8dYB3ztImqmtQN+2IPk0SYGG2IPrCF2UOMC2qvJ5pybCdSrSloI9IQNvibK9QQEbMsW0WCgjgBFZii40hgKBVG9JTrVGhtHKwHV55iIA4BXDoAY4ydin3PGgaBIhJg/aLwYlqVP82Q4cLHGvqset50DMZSSPYom4AJD6dq2XhEujDUqksahRtC1pAIS7SiotajJZ0Q0EVJ1T7tDZpoKCZqpF3IgeYVvWL0VKG4tPnZQMocHxqFzIbTytRpFYhFy0ABa28ZmdjKGBA8KltzRvZPQFFldPXdFXu8VCPfW/VsYq2Bt16otmSEnm0Jv1f8+6+5i3WtjuveWzs/+U1r+igNXOTEuCraic0L0ZpGhGXAcUubUo5GjnVT7vHqQIEvw1WW8R/2fK0ZIvZqAR2ruUr8GzvuxwE1WhPYDAQ8pT0mT0qs2hZFobN2i8GVIVb6mmzmfV2Bv4st+A0Ncob7QPMz9IfP5F+W7w63lBZLvKpOwV6d1nw1ST3ET201Q206Q9/dLkBoBfnbzwvm+12/EQ0/99+E9Jb4/ek+Pgb);lineShape=1;strokeColor=default;" vertex="1" parent="1">
                    <mxGeometry x="503.709651140221" y="421.09243918053926" width="19.592988735817283" height="31.330207144247144" as="geometry"/>
                </mxCell>
                <mxCell id="73" value="" style="shape=stencil(7VhJcttADHyNrqhZMAvOjvMPV1mOVXEsl6xsvw8U1TAESLbLl1ySG0WhZzDd2Di7fPP6ePey36Xwej4dP++/H+7Pj7v8YZfS4flxfzqc9WmXb3f55uF42n86Hb8+319/v9xdLC9PX47fLiv8uOKEOF9AKfy8vsiBQvz95uPV/unwPLNPTLlbQKPYtgG5Ug4WUKjzNoAV0AwgNarApZKoFgOIhQS4dAGIdYlaBvaZut0gUQrAvvgjRwoJ2FcSu36ghPzv1IKzD8CfGoirXx/4UxPF7OwFCFAz1eD4CQXYMzXPf0H2hSobeyUYRFCtFOz6bQiyZR+jsRe8fqFm7WOkjAjlwd8EyIPidYWVIatYrJDSEobHkwRCCezAzWtQ4mBtKwmCDYqWYNYoS2IBnYkBrU1Zty71CuNCNE5t3vRIBQgt7ANbAQm4JMp694AGlJZG3aZCT9QBrSIUg2epoh3EFyNlqaEzyCiGE0CGlFsAtrEkb7DUKVtaRcMb09rsGVSZglxi6vYMUmCJ1NBYASAdtMT1hUtgByXRNcLLocEOvVMqntYMympvvszonhEDugNU6iCW1KWySNGKziBjvVl4C1JaE9IB4tB+HZCJmwfA4CvEiyLAHaZoav4MjIKvj5SfAJkE53RtXgc0VMUwNfAJodFS8Ra2VmoAF1Q2uu8omiKwuLbR0mYJgXqWCuGk1jcoXN8NaIuEmBG33rRk1KHZFkgJjiRWiDYl1fp4y94nFtghdFwubliKVEG8rk6rICH+xrRqOf0/rf7b06oCim2FShGjWZIH41PSBDj0aNJ0q7FOqyjo4qJRKaAC1XiU28kjhionvz5rWAGO4viEnewTVC0sykoYBXzDPlr/c4ffwIuGoxSj8T+MJjz7ikdZGag7f/JI6w1+nMA5js+H9YjwSZMnxjb0Le5SQcaEuB7TY5ab2TOwb+NOY2ZfUPN7573L2/b68OeS5+Hw9HS9I5r/7y+F9NX1Qinf/gI=);lineShape=1;strokeColor=default;" vertex="1" parent="1">
                    <mxGeometry x="537.7754365908497" y="411.2729792796815" width="29.924598715391607" height="26.090868634589565" as="geometry"/>
                </mxCell>
                <mxCell id="74" value="" style="shape=stencil(rZfbbhpBDIafZm8te7xzuk7T94gUUlApRIS2ydvXoy2U8Wb/FVIlLhb4POuzPYM+vG2fXjdD4Lfz6fh983v3fN4O+mUIYXfYbk67sz0N+jjow8vxtPl2Ov48PE/fX58a2Z5+HH+1E94nOaYUm1Dgj+mHGql9tc/Xid/vDje8Ug2ej4DPlKXnlQrgRUm4EyiVkiwLmAW5t6AI1QwsYCq9SlmgyaNS6lWKZhUQaH+PnYAdwQk4yRQonUCoFMdlgRIo9CpJvfjtU4HKJH3cRKBbLazSeylRroDPlHLHW5wV8IVK7XgLCzKgEkfHKzq/Uhgd//eAJX6c8cg/lpXq+ID5wo6H/q9U+/OFBPnf+Or4chcfKIGcnuujpCv2iuNX9EmuZkhxPoyej5gPnh9BSc7zbcT+n+Wzwh5hfPY8LODie0ogxfrkvh6t3pG9pn90PGN9qq/fFX9KdrzgfFPPQ32sYd55fvb9ZEX/Wb+qK/VVvP9B/xG+2ncTYDDG2guSSyDGCrkA62U0/x++EPcTxqYgatCRxr5ByHWSL40wL2CrR1kWsCEZnUfNRUDAxnB0NalwuYnlMtavTSITg7lte4DrokmgV9W6fh+FHC+N7PN1yMq2r4OS4OCzhUt7G9qGBiotU+lfYJEX8AIz2a0qjEuZ/WRtqQhMtrzIns+glK+Lww0fgQHsd602S0Bms99gW2+F9rJ6Ho2+WaOw3QvbO+cDPr+fNDXB0TFbLY0XUGZ82bZvrhAZdDqL1+yKglo1+7JvVxp4/n1XoHXeHv7dt152+/10Xbv939/P7KfpbqePfwA=);lineShape=1;strokeColor=default;" vertex="1" parent="1">
                    <mxGeometry x="251.10834648010314" y="469.6086672287222" width="258.46732309990676" height="71.99491795480098" as="geometry"/>
                </mxCell>
            </root>
        </mxGraphModel>
    </diagram>
</mxfile>